{
.appVersion = "939";
copyright = "Copyright 2016 Jeremy Tribby. SIL OFL License v1.1.";
date = "2016-07-12 00:27:02 +0000";
designer = "Jeremy Tribby";
designerURL = "http://tribby.com/";
familyName = Barlow;
featurePrefixes = (
{
automatic = 1;
code = "languagesystem DFLT dflt;\012";
name = Languagesystems;
}
);
features = (
{
automatic = 1;
code = "sub hyphen hyphen by hyphen_hyphen.liga;\012";
name = liga;
}
);
fontMaster = (
{
alignmentZones = (
"{800, 16}",
"{700, 10}",
"{500, 9}",
"{0, -10}",
"{-200, -3}"
);
ascender = 800;
capHeight = 700;
customParameters = (
{
name = paramArea;
value = "488";
},
{
name = paramDepth;
value = "16";
},
{
name = paramOver;
value = "0";
}
);
descender = -200;
horizontalStems = (
22,
22
);
id = "262880E7-CFE1-4BDA-902E-E24798F3240A";
userData = {
GSCornerRadius = 8;
GSOffsetHorizontal = 11;
GSOffsetMakeStroke = 1;
GSOffsetVertical = 10;
noodleExtremesAndInflections = 1;
noodleRemoveOverlap = 1;
noodleThickness = "22.0";
};
verticalStems = (
21,
21
);
visible = 1;
weight = Light;
weightValue = 23;
xHeight = 500;
},
{
alignmentZones = (
"{800, 16}",
"{700, 13}",
"{520, 13}",
"{0, -13}",
"{-200, -10}"
);
ascender = 800;
capHeight = 700;
customParameters = (
{
name = paramArea;
value = "488";
},
{
name = paramDepth;
value = "16";
},
{
name = paramOver;
value = "0";
}
);
descender = -200;
horizontalStems = (
188,
188
);
id = "4E2227F3-52E4-4048-A8EE-327B486EF0A4";
userData = {
GSCornerRadius = 8;
GSOffsetHorizontal = 104;
GSOffsetMakeStroke = 1;
GSOffsetVertical = 95;
noodleExtremesAndInflections = 1;
noodleRemoveOverlap = 1;
noodleThickness = "22.0";
};
verticalStems = (
170,
161
);
visible = 1;
weight = Bold;
weightValue = 188;
xHeight = 520;
}
);
glyphs = (
{
glyphname = A;
lastChange = "2016-11-17 06:26:50 +0000";
layers = (
{
layerId = "262880E7-CFE1-4BDA-902E-E24798F3240A";
paths = (
{
closed = 1;
nodes = (
"55 0 LINE",
"245 658 LINE",
"435 0 LINE",
"457 0 LINE",
"256 700 LINE",
"233 700 LINE",
"32 0 LINE"
);
},
{
closed = 1;
nodes = (
"402 145 LINE",
"402 166 LINE",
"92 166 LINE",
"92 145 LINE"
);
}
);
width = 489;
},
{
layerId = "4E2227F3-52E4-4048-A8EE-327B486EF0A4";
paths = (
{
closed = 1;
nodes = (
"196 0 LINE",
"282 449 LINE",
"354 0 LINE",
"547 0 LINE",
"383 700 LINE",
"172 700 LINE",
"8 0 LINE"
);
},
{
closed = 1;
nodes = (
"415 100 LINE",
"415 244 LINE",
"136 244 LINE",
"136 100 LINE"
);
}
);
width = 555;
},
{
associatedMasterId = "262880E7-CFE1-4BDA-902E-E24798F3240A";
layerId = "1274BDA7-A57A-49E6-A7E6-98647C4EC339";
name = "{95,100}";
paths = (
{
closed = 1;
nodes = (
"119 0 LINE",
"263 566 LINE",
"402 0 LINE",
"497 0 LINE",
"312 700 LINE",
"208 700 LINE",
"24 0 LINE"
);
},
{
closed = 1;
nodes = (
"410 140 LINE",
"410 230 LINE",
"114 230 LINE",
"114 140 LINE"
);
}
);
width = 521;
}
);
leftKerningGroup = A;
rightKerningGroup = A;
unicode = 0041;
},
{
glyphname = B;
lastChange = "2016-11-17 06:24:42 +0000";
layers = (
{
layerId = "262880E7-CFE1-4BDA-902E-E24798F3240A";
paths = (
{
closed = 1;
nodes = (
"118 679 LINE",
"276 679 LINE SMOOTH",
"373 679 OFFCURVE",
"437 617 OFFCURVE",
"437 523 CURVE SMOOTH",
"437 432 OFFCURVE",
"373 372 OFFCURVE",
"276 372 CURVE SMOOTH",
"118 372 LINE"
);
},
{
closed = 1;
nodes = (
"276 351 LINE SMOOTH",
"386 351 OFFCURVE",
"459 420 OFFCURVE",
"459 523 CURVE SMOOTH",
"459 629 OFFCURVE",
"386 700 OFFCURVE",
"276 700 CURVE SMOOTH",
"96 700 LINE",
"96 351 LINE"
);
},
{
closed = 1;
nodes = (
"118 351 LINE",
"276 351 LINE SMOOTH",
"373 351 OFFCURVE",
"437 284 OFFCURVE",
"437 186 CURVE SMOOTH",
"437 88 OFFCURVE",
"373 22 OFFCURVE",
"276 22 CURVE SMOOTH",
"118 22 LINE"
);
},
{
closed = 1;
nodes = (
"276 0 LINE SMOOTH",
"386 0 OFFCURVE",
"459 74 OFFCURVE",
"459 186 CURVE SMOOTH",
"459 298 OFFCURVE",
"386 372 OFFCURVE",
"276 372 CURVE SMOOTH",
"96 372 LINE",
"96 0 LINE"
);
}
);
width = 499;
},
{
layerId = "4E2227F3-52E4-4048-A8EE-327B486EF0A4";
paths = (
{
closed = 1;
nodes = (
"212 530 LINE",
"242 530 LINE",
"269 530 OFFCURVE",
"287 512 OFFCURVE",
"287 479 CURVE SMOOTH",
"287 446 OFFCURVE",
"269 425 OFFCURVE",
"242 425 CURVE",
"212 425 LINE"
);
},
{
closed = 1;
nodes = (
"196 317 LINE SMOOTH",
"384 317 OFFCURVE",
"475 367 OFFCURVE",
"475 503 CURVE SMOOTH",
"475 640 OFFCURVE",
"379 700 OFFCURVE",
"234 700 CURVE",
"24 700 LINE",
"24 317 LINE"
);
},
{
closed = 1;
nodes = (
"212 286 LINE",
"249 286 LINE SMOOTH",
"280 286 OFFCURVE",
"300 260 OFFCURVE",
"300 225 CURVE SMOOTH",
"300 190 OFFCURVE",
"279 170 OFFCURVE",
"248 170 CURVE SMOOTH",
"212 170 LINE"
);
},
{
closed = 1;
nodes = (
"263 0 LINE SMOOTH",
"388 0 OFFCURVE",
"488 63 OFFCURVE",
"488 204 CURVE SMOOTH",
"488 355 OFFCURVE",
"326 411 OFFCURVE",
"196 411 CURVE",
"24 411 LINE",
"24 0 LINE"
);
}
);
width = 498;
},
{
associatedMasterId = "262880E7-CFE1-4BDA-902E-E24798F3240A";
layerId = "93E0B52A-A210-4120-ABA1-15C31411DBBB";
name = "{95,100}";
paths = (
{
closed = 1;
nodes = (
"167 612 LINE",
"272 612 LINE SMOOTH",
"339 612 OFFCURVE",
"382 570 OFFCURVE",
"382 504 CURVE SMOOTH",
"382 439 OFFCURVE",
"339 398 OFFCURVE",
"272 398 CURVE SMOOTH",
"167 398 LINE"
);
},
{
closed = 1;
nodes = (
"270 329 LINE SMOOTH",
"396 329 OFFCURVE",
"474 399 OFFCURVE",
"474 514 CURVE SMOOTH",
"474 629 OFFCURVE",
"394 700 OFFCURVE",
"265 700 CURVE SMOOTH",
"72 700 LINE",
"72 329 LINE"
);
},
{
closed = 1;
nodes = (
"167 317 LINE",
"272 317 LINE SMOOTH",
"342 317 OFFCURVE",
"385 273 OFFCURVE",
"385 205 CURVE SMOOTH",
"385 135 OFFCURVE",
"342 89 OFFCURVE",
"272 89 CURVE SMOOTH",
"167 89 LINE"
);
},
{
closed = 1;
nodes = (
"279 0 LINE SMOOTH",
"403 0 OFFCURVE",
"480 74 OFFCURVE",
"480 193 CURVE SMOOTH",
"480 316 OFFCURVE",
"400 393 OFFCURVE",
"272 393 CURVE SMOOTH",
"72 393 LINE",
"72 0 LINE"
);
}
);
width = 510;
}
);
unicode = 0042;
},
{
glyphname = C;
lastChange = "2016-11-17 07:03:18 +0000";
layers = (
{
layerId = "262880E7-CFE1-4BDA-902E-E24798F3240A";
paths = (
{
closed = 1;
nodes = (
"349 -9 OFFCURVE",
"418 56 OFFCURVE",
"418 154 CURVE SMOOTH",
"418 179 LINE",
"396 179 LINE",
"396 152 LINE SMOOTH",
"396 68 OFFCURVE",
"336 12 OFFCURVE",
"245 12 CURVE SMOOTH",
"154 12 OFFCURVE",
"94 68 OFFCURVE",
"94 152 CURVE SMOOTH",
"94 548 LINE SMOOTH",
"94 632 OFFCURVE",
"154 688 OFFCURVE",
"245 688 CURVE SMOOTH",
"336 688 OFFCURVE",
"396 632 OFFCURVE",
"396 548 CURVE SMOOTH",
"396 520 LINE",
"418 520 LINE",
"418 546 LINE SMOOTH",
"418 644 OFFCURVE",
"349 709 OFFCURVE",
"245 709 CURVE SMOOTH",
"141 709 OFFCURVE",
"72 644 OFFCURVE",
"72 546 CURVE SMOOTH",
"72 154 LINE SMOOTH",
"72 56 OFFCURVE",
"141 -9 OFFCURVE",
"245 -9 CURVE SMOOTH"
);
}
);
width = 482;
},
{
layerId = "4E2227F3-52E4-4048-A8EE-327B486EF0A4";
paths = (
{
closed = 1;
nodes = (
"389 -11 OFFCURVE",
"482 75 OFFCURVE",
"482 205 CURVE SMOOTH",
"482 231 LINE",
"294 231 LINE",
"294 194 LINE SMOOTH",
"294 168 OFFCURVE",
"276 150 OFFCURVE",
"250 150 CURVE SMOOTH",
"224 150 OFFCURVE",
"206 168 OFFCURVE",
"206 194 CURVE SMOOTH",
"206 508 LINE SMOOTH",
"206 534 OFFCURVE",
"224 552 OFFCURVE",
"250 552 CURVE SMOOTH",
"276 552 OFFCURVE",
"294 534 OFFCURVE",
"294 508 CURVE SMOOTH",
"294 470 LINE",
"482 470 LINE",
"482 497 LINE SMOOTH",
"482 627 OFFCURVE",
"389 713 OFFCURVE",
"250 713 CURVE SMOOTH",
"111 713 OFFCURVE",
"18 627 OFFCURVE",
"18 497 CURVE SMOOTH",
"18 205 LINE SMOOTH",
"18 75 OFFCURVE",
"111 -11 OFFCURVE",
"250 -11 CURVE SMOOTH"
);
}
);
width = 498;
},
{
associatedMasterId = "262880E7-CFE1-4BDA-902E-E24798F3240A";
layerId = "720A3B58-5B9D-4DCC-84D4-46C8C80683FD";
name = "{95,100}";
paths = (
{
closed = 1;
nodes = (
"366 -10 OFFCURVE",
"446 64 OFFCURVE",
"446 176 CURVE SMOOTH",
"446 202 LINE",
"351 202 LINE",
"351 178 LINE SMOOTH",
"351 120 OFFCURVE",
"310 80 OFFCURVE",
"247 80 CURVE SMOOTH",
"185 80 OFFCURVE",
"143 120 OFFCURVE",
"143 178 CURVE SMOOTH",
"143 523 LINE SMOOTH",
"143 581 OFFCURVE",
"185 621 OFFCURVE",
"247 621 CURVE SMOOTH",
"310 621 OFFCURVE",
"351 581 OFFCURVE",
"351 523 CURVE SMOOTH",
"351 498 LINE",
"446 498 LINE",
"446 525 LINE SMOOTH",
"446 637 OFFCURVE",
"366 711 OFFCURVE",
"247 711 CURVE SMOOTH",
"128 711 OFFCURVE",
"48 637 OFFCURVE",
"48 525 CURVE SMOOTH",
"48 176 LINE SMOOTH",
"48 64 OFFCURVE",
"128 -10 OFFCURVE",
"247 -10 CURVE SMOOTH"
);
}
);
width = 489;
}
);
leftKerningGroup = C;
rightKerningGroup = C;
unicode = 0043;
},
{
glyphname = D;
lastChange = "2016-11-17 06:24:42 +0000";
layers = (
{
layerId = "262880E7-CFE1-4BDA-902E-E24798F3240A";
paths = (
{
closed = 1;
nodes = (
"259 0 LINE SMOOTH",
"366 0 OFFCURVE",
"432 68 OFFCURVE",
"432 180 CURVE SMOOTH",
"432 520 LINE SMOOTH",
"432 632 OFFCURVE",
"366 700 OFFCURVE",
"259 700 CURVE SMOOTH",
"88 700 LINE",
"88 0 LINE"
);
},
{
closed = 1;
nodes = (
"110 679 LINE",
"261 679 LINE SMOOTH",
"353 679 OFFCURVE",
"410 619 OFFCURVE",
"410 520 CURVE SMOOTH",
"410 179 LINE SMOOTH",
"410 81 OFFCURVE",
"353 21 OFFCURVE",
"261 21 CURVE SMOOTH",
"110 21 LINE"
);
}
);
width = 512;
},
{
layerId = "4E2227F3-52E4-4048-A8EE-327B486EF0A4";
paths = (
{
closed = 1;
nodes = (
"257 0 LINE SMOOTH",
"390 0 OFFCURVE",
"482 80 OFFCURVE",
"482 200 CURVE SMOOTH",
"482 500 LINE SMOOTH",
"482 620 OFFCURVE",
"390 700 OFFCURVE",
"257 700 CURVE SMOOTH",
"22 700 LINE",
"22 0 LINE"
);
},
{
closed = 1;
nodes = (
"210 530 LINE",
"242 530 LINE SMOOTH",
"273 530 OFFCURVE",
"294 510 OFFCURVE",
"294 479 CURVE",
"294 222 LINE",
"292 192 OFFCURVE",
"271 172 OFFCURVE",
"242 171 CURVE SMOOTH",
"210 170 LINE"
);
}
);
width = 502;
},
{
associatedMasterId = "262880E7-CFE1-4BDA-902E-E24798F3240A";
layerId = "2C84FD61-1044-497C-B585-08307607F25A";
name = "{95,100}";
paths = (
{
closed = 1;
nodes = (
"265 0 LINE SMOOTH",
"383 0 OFFCURVE",
"461 73 OFFCURVE",
"461 189 CURVE SMOOTH",
"461 511 LINE SMOOTH",
"461 627 OFFCURVE",
"383 700 OFFCURVE",
"265 700 CURVE SMOOTH",
"66 700 LINE",
"66 0 LINE"
);
},
{
closed = 1;
nodes = (
"161 610 LINE",
"260 610 LINE SMOOTH",
"325 610 OFFCURVE",
"366 567 OFFCURVE",
"366 498 CURVE SMOOTH",
"366 202 LINE SMOOTH",
"366 133 OFFCURVE",
"324 90 OFFCURVE",
"260 90 CURVE SMOOTH",
"161 90 LINE"
);
}
);
width = 521;
}
);
rightKerningGroup = D;
unicode = 0044;
},
{
glyphname = E;
lastChange = "2016-11-17 06:24:42 +0000";
layers = (
{
layerId = "262880E7-CFE1-4BDA-902E-E24798F3240A";
paths = (
{
closed = 1;
nodes = (
"430 0 LINE",
"430 21 LINE",
"110 21 LINE",
"110 679 LINE",
"430 679 LINE",
"430 700 LINE",
"88 700 LINE",
"88 0 LINE"
);
},
{
closed = 1;
nodes = (
"333 340 LINE",
"333 361 LINE",
"99 361 LINE",
"99 340 LINE"
);
}
);
width = 478;
},
{
layerId = "4E2227F3-52E4-4048-A8EE-327B486EF0A4";
paths = (
{
closed = 1;
nodes = (
"457 0 LINE",
"457 170 LINE",
"210 170 LINE",
"210 530 LINE",
"457 530 LINE",
"457 700 LINE",
"22 700 LINE",
"22 0 LINE"
);
},
{
closed = 1;
nodes = (
"358 265 LINE",
"358 435 LINE",
"98 435 LINE",
"98 265 LINE"
);
}
);
width = 469;
},
{
associatedMasterId = "262880E7-CFE1-4BDA-902E-E24798F3240A";
layerId = "7AF0CB16-15C6-4853-92DB-28FAD9498105";
name = "{95,100}";
paths = (
{
closed = 1;
nodes = (
"449 0 LINE",
"449 90 LINE",
"161 90 LINE",
"161 610 LINE",
"449 610 LINE",
"449 700 LINE",
"66 700 LINE",
"66 0 LINE"
);
},
{
closed = 1;
nodes = (
"351 307 LINE",
"351 397 LINE",
"105 397 LINE",
"105 307 LINE"
);
}
);
width = 485;
}
);
unicode = 0045;
},
{
glyphname = F;
lastChange = "2016-11-17 06:24:42 +0000";
layers = (
{
layerId = "262880E7-CFE1-4BDA-902E-E24798F3240A";
paths = (
{
closed = 1;
nodes = (
"110 0 LINE",
"110 679 LINE",
"429 679 LINE",
"429 700 LINE",
"88 700 LINE",
"88 0 LINE"
);
},
{
closed = 1;
nodes = (
"332 340 LINE",
"332 361 LINE",
"99 361 LINE",
"99 340 LINE"
);
}
);
width = 469;
},
{
layerId = "4E2227F3-52E4-4048-A8EE-327B486EF0A4";
paths = (
{
closed = 1;
nodes = (
"210 0 LINE",
"210 530 LINE",
"457 530 LINE",
"457 700 LINE",
"22 700 LINE",
"22 0 LINE"
);
},
{
closed = 1;
nodes = (
"358 265 LINE",
"358 435 LINE",
"98 435 LINE",
"98 265 LINE"
);
}
);
width = 467;
},
{
associatedMasterId = "262880E7-CFE1-4BDA-902E-E24798F3240A";
layerId = "9C1922F2-4246-4C06-8262-FD2BFEB23C93";
name = "{95,100}";
paths = (
{
closed = 1;
nodes = (
"161 0 LINE",
"161 610 LINE",
"448 610 LINE",
"448 700 LINE",
"66 700 LINE",
"66 0 LINE"
);
},
{
closed = 1;
nodes = (
"350 307 LINE",
"350 397 LINE",
"105 397 LINE",
"105 307 LINE"
);
}
);
width = 478;
}
);
unicode = 0046;
},
{
glyphname = G;
lastChange = "2016-11-17 06:24:42 +0000";
layers = (
{
layerId = "262880E7-CFE1-4BDA-902E-E24798F3240A";
paths = (
{
closed = 1;
nodes = (
"349 -9 OFFCURVE",
"418 56 OFFCURVE",
"418 154 CURVE SMOOTH",
"418 361 LINE",
"254 361 LINE",
"254 340 LINE",
"396 340 LINE",
"396 152 LINE SMOOTH",
"396 68 OFFCURVE",
"336 12 OFFCURVE",
"245 12 CURVE SMOOTH",
"154 12 OFFCURVE",
"94 68 OFFCURVE",
"94 152 CURVE SMOOTH",
"94 548 LINE SMOOTH",
"94 632 OFFCURVE",
"154 688 OFFCURVE",
"245 688 CURVE SMOOTH",
"336 688 OFFCURVE",
"396 632 OFFCURVE",
"396 548 CURVE SMOOTH",
"396 500 LINE",
"418 500 LINE",
"418 546 LINE SMOOTH",
"418 644 OFFCURVE",
"349 709 OFFCURVE",
"245 709 CURVE SMOOTH",
"141 709 OFFCURVE",
"72 644 OFFCURVE",
"72 546 CURVE SMOOTH",
"72 154 LINE SMOOTH",
"72 56 OFFCURVE",
"141 -9 OFFCURVE",
"245 -9 CURVE SMOOTH"
);
}
);
width = 490;
},
{
layerId = "4E2227F3-52E4-4048-A8EE-327B486EF0A4";
paths = (
{
closed = 1;
nodes = (
"386 -11 OFFCURVE",
"478 72 OFFCURVE",
"478 196 CURVE SMOOTH",
"478 380 LINE",
"250 380 LINE",
"250 271 LINE",
"290 271 LINE",
"290 192 LINE SMOOTH",
"290 167 OFFCURVE",
"273 150 OFFCURVE",
"248 150 CURVE SMOOTH",
"223 150 OFFCURVE",
"206 167 OFFCURVE",
"206 192 CURVE SMOOTH",
"206 509 LINE SMOOTH",
"206 534 OFFCURVE",
"223 551 OFFCURVE",
"248 551 CURVE SMOOTH",
"273 551 OFFCURVE",
"290 534 OFFCURVE",
"290 509 CURVE SMOOTH",
"290 430 LINE",
"478 430 LINE",
"478 503 LINE SMOOTH",
"478 628 OFFCURVE",
"386 712 OFFCURVE",
"248 712 CURVE SMOOTH",
"110 712 OFFCURVE",
"18 629 OFFCURVE",
"18 505 CURVE SMOOTH",
"18 196 LINE SMOOTH",
"18 72 OFFCURVE",
"110 -11 OFFCURVE",
"248 -11 CURVE SMOOTH"
);
}
);
width = 496;
},
{
associatedMasterId = "262880E7-CFE1-4BDA-902E-E24798F3240A";
layerId = "81F7C966-F8F1-415C-A234-62D5C18AA009";
name = "{95,100}";
paths = (
{
closed = 1;
nodes = (
"370 -10 OFFCURVE",
"449 62 OFFCURVE",
"449 169 CURVE SMOOTH",
"449 376 LINE",
"257 376 LINE",
"257 286 LINE",
"354 286 LINE",
"354 177 LINE SMOOTH",
"354 119 OFFCURVE",
"313 80 OFFCURVE",
"251 80 CURVE SMOOTH",
"189 80 OFFCURVE",
"148 119 OFFCURVE",
"148 177 CURVE SMOOTH",
"148 523 LINE SMOOTH",
"148 581 OFFCURVE",
"189 621 OFFCURVE",
"251 621 CURVE SMOOTH",
"313 621 OFFCURVE",
"354 581 OFFCURVE",
"354 523 CURVE SMOOTH",
"354 469 LINE",
"449 469 LINE",
"449 531 LINE SMOOTH",
"449 639 OFFCURVE",
"370 711 OFFCURVE",
"251 711 CURVE SMOOTH",
"132 711 OFFCURVE",
"54 639 OFFCURVE",
"54 531 CURVE SMOOTH",
"54 169 LINE SMOOTH",
"54 62 OFFCURVE",
"132 -10 OFFCURVE",
"251 -10 CURVE SMOOTH"
);
}
);
width = 503;
}
);
leftKerningGroup = C;
rightKerningGroup = G;
unicode = 0047;
},
{
glyphname = H;
lastChange = "2016-11-17 06:24:42 +0000";
layers = (
{
layerId = "262880E7-CFE1-4BDA-902E-E24798F3240A";
paths = (
{
closed = 1;
nodes = (
"432 0 LINE",
"432 700 LINE",
"410 700 LINE",
"410 0 LINE"
);
},
{
closed = 1;
nodes = (
"110 0 LINE",
"110 700 LINE",
"88 700 LINE",
"88 0 LINE"
);
},
{
closed = 1;
nodes = (
"415 340 LINE",
"415 361 LINE",
"105 361 LINE",
"105 340 LINE"
);
}
);
width = 520;
},
{
layerId = "4E2227F3-52E4-4048-A8EE-327B486EF0A4";
paths = (
{
closed = 1;
nodes = (
"472 0 LINE",
"472 700 LINE",
"284 700 LINE",
"284 0 LINE"
);
},
{
closed = 1;
nodes = (
"210 0 LINE",
"210 700 LINE",
"22 700 LINE",
"22 0 LINE"
);
},
{
closed = 1;
nodes = (
"378 265 LINE",
"378 435 LINE",
"118 435 LINE",
"118 265 LINE"
);
}
);
width = 494;
},
{
associatedMasterId = "262880E7-CFE1-4BDA-902E-E24798F3240A";
layerId = "31823E21-3C14-46CD-9A59-ED0DFD05051D";
name = "{95,100}";
paths = (
{
closed = 1;
nodes = (
"456 0 LINE",
"456 700 LINE",
"362 700 LINE",
"362 0 LINE"
);
},
{
closed = 1;
nodes = (
"161 0 LINE",
"161 700 LINE",
"66 700 LINE",
"66 0 LINE"
);
},
{
closed = 1;
nodes = (
"406 307 LINE",
"406 397 LINE",
"118 397 LINE",
"118 307 LINE"
);
}
);
width = 520;
}
);
unicode = 0048;
},
{
glyphname = I;
lastChange = "2016-11-17 06:24:42 +0000";
layers = (
{
layerId = "262880E7-CFE1-4BDA-902E-E24798F3240A";
paths = (
{
closed = 1;
nodes = (
"110 0 LINE",
"110 700 LINE",
"88 700 LINE",
"88 0 LINE"
);
}
);
width = 198;
},
{
layerId = "4E2227F3-52E4-4048-A8EE-327B486EF0A4";
paths = (
{
closed = 1;
nodes = (
"210 0 LINE",
"210 700 LINE",
"22 700 LINE",
"22 0 LINE"
);
}
);
width = 232;
}
);
unicode = 0049;
},
{
glyphname = J;
lastChange = "2016-11-17 06:24:42 +0000";
layers = (
{
layerId = "262880E7-CFE1-4BDA-902E-E24798F3240A";
paths = (
{
closed = 1;
nodes = (
"338 -9 OFFCURVE",
"406 56 OFFCURVE",
"406 154 CURVE SMOOTH",
"406 700 LINE",
"384 700 LINE",
"384 152 LINE SMOOTH",
"384 68 OFFCURVE",
"324 12 OFFCURVE",
"235 12 CURVE SMOOTH",
"146 12 OFFCURVE",
"86 68 OFFCURVE",
"86 152 CURVE SMOOTH",
"86 234 LINE",
"64 234 LINE",
"64 154 LINE SMOOTH",
"64 56 OFFCURVE",
"132 -9 OFFCURVE",
"235 -9 CURVE SMOOTH"
);
}
);
width = 494;
},
{
layerId = "4E2227F3-52E4-4048-A8EE-327B486EF0A4";
paths = (
{
closed = 1;
nodes = (
"384 -8 OFFCURVE",
"476 72 OFFCURVE",
"476 192 CURVE SMOOTH",
"476 700 LINE",
"288 700 LINE",
"288 204 LINE SMOOTH",
"288 179 OFFCURVE",
"271 162 OFFCURVE",
"246 162 CURVE SMOOTH",
"221 162 OFFCURVE",
"204 179 OFFCURVE",
"204 204 CURVE SMOOTH",
"204 265 LINE",
"16 265 LINE",
"16 192 LINE SMOOTH",
"16 72 OFFCURVE",
"108 -8 OFFCURVE",
"246 -8 CURVE SMOOTH"
);
}
);
width = 498;
},
{
associatedMasterId = "262880E7-CFE1-4BDA-902E-E24798F3240A";
layerId = "65148597-B97A-49CF-A63D-3D6183A855C1";
name = "{95,100}";
paths = (
{
closed = 1;
nodes = (
"363 -9 OFFCURVE",
"441 63 OFFCURVE",
"441 171 CURVE SMOOTH",
"441 700 LINE",
"347 700 LINE",
"347 179 LINE SMOOTH",
"347 120 OFFCURVE",
"306 81 OFFCURVE",
"244 81 CURVE SMOOTH",
"183 81 OFFCURVE",
"142 120 OFFCURVE",
"142 179 CURVE SMOOTH",
"142 248 LINE",
"48 248 LINE",
"48 171 LINE SMOOTH",
"48 63 OFFCURVE",
"126 -9 OFFCURVE",
"244 -9 CURVE SMOOTH"
);
}
);
width = 507;
}
);
leftKerningGroup = J;
rightKerningGroup = J;
unicode = 004A;
},
{
glyphname = K;
lastChange = "2016-11-17 06:24:42 +0000";
layers = (
{
layerId = "262880E7-CFE1-4BDA-902E-E24798F3240A";
paths = (
{
closed = 1;
nodes = (
"110 0 LINE",
"110 328 LINE",
"391 0 LINE",
"420 0 LINE",
"118 350 LINE",
"420 700 LINE",
"391 700 LINE",
"110 372 LINE",
"110 700 LINE",
"88 700 LINE",
"88 0 LINE"
);
}
);
width = 420;
},
{
layerId = "4E2227F3-52E4-4048-A8EE-327B486EF0A4";
paths = (
{
closed = 1;
nodes = (
"210 0 LINE",
"210 217 LINE",
"312 0 LINE",
"537 0 LINE",
"343 359 LINE",
"545 700 LINE",
"327 700 LINE",
"210 461 LINE",
"210 700 LINE",
"22 700 LINE",
"22 0 LINE"
);
}
);
width = 545;
}
);
rightKerningGroup = K;
unicode = 004B;
},
{
glyphname = L;
lastChange = "2016-11-17 06:24:42 +0000";
layers = (
{
layerId = "262880E7-CFE1-4BDA-902E-E24798F3240A";
paths = (
{
closed = 1;
nodes = (
"421 0 LINE",
"421 21 LINE",
"110 21 LINE",
"110 700 LINE",
"88 700 LINE",
"88 0 LINE"
);
}
);
width = 437;
},
{
layerId = "4E2227F3-52E4-4048-A8EE-327B486EF0A4";
paths = (
{
closed = 1;
nodes = (
"457 0 LINE",
"457 170 LINE",
"210 170 LINE",
"210 700 LINE",
"22 700 LINE",
"22 0 LINE"
);
}
);
width = 461;
},
{
associatedMasterId = "262880E7-CFE1-4BDA-902E-E24798F3240A";
layerId = "B734E69C-2AF6-42EC-9D16-BBE1A7449BD3";
name = "{95,100}";
paths = (
{
closed = 1;
nodes = (
"444 0 LINE",
"444 90 LINE",
"161 90 LINE",
"161 700 LINE",
"66 700 LINE",
"66 0 LINE"
);
}
);
width = 456;
}
);
rightKerningGroup = L;
unicode = 004C;
},
{
glyphname = M;
lastChange = "2016-11-17 06:33:34 +0000";
layers = (
{
layerId = "262880E7-CFE1-4BDA-902E-E24798F3240A";
paths = (
{
closed = 1;
nodes = (
"110 0 LINE",
"110 651 LINE",
"278 327 LINE",
"446 651 LINE",
"446 0 LINE",
"468 0 LINE",
"468 700 LINE",
"446 700 LINE",
"278 372 LINE",
"110 700 LINE",
"88 700 LINE",
"88 0 LINE"
);
}
);
width = 556;
},
{
layerId = "4E2227F3-52E4-4048-A8EE-327B486EF0A4";
paths = (
{
closed = 1;
nodes = (
"210 0 LINE",
"210 424 LINE",
"277 296 LINE",
"342 421 LINE",
"342 0 LINE",
"530 0 LINE",
"530 700 LINE",
"347 700 LINE",
"277 562 LINE",
"205 700 LINE",
"22 700 LINE",
"22 0 LINE"
);
}
);
width = 552;
},
{
associatedMasterId = "262880E7-CFE1-4BDA-902E-E24798F3240A";
layerId = "187E669A-7479-4BB4-826A-9BA31BA174C6";
name = "{95,100}";
paths = (
{
closed = 1;
nodes = (
"160 0 LINE",
"160 502 LINE",
"284 280 LINE",
"408 504 LINE",
"408 0 LINE",
"502 0 LINE",
"502 700 LINE",
"409 700 LINE",
"284 472 LINE",
"159 700 LINE",
"66 700 LINE",
"66 0 LINE"
);
}
);
width = 568;
}
);
unicode = 004D;
},
{
glyphname = N;
lastChange = "2016-11-17 06:24:42 +0000";
layers = (
{
layerId = "262880E7-CFE1-4BDA-902E-E24798F3240A";
paths = (
{
closed = 1;
nodes = (
"110 0 LINE",
"110 647 LINE",
"428 0 LINE",
"450 0 LINE",
"450 700 LINE",
"428 700 LINE",
"428 53 LINE",
"110 700 LINE",
"88 700 LINE",
"88 0 LINE"
);
}
);
width = 538;
},
{
layerId = "4E2227F3-52E4-4048-A8EE-327B486EF0A4";
paths = (
{
closed = 1;
nodes = (
"208 0 LINE",
"206 346 LINE",
"304 0 LINE",
"508 0 LINE",
"508 700 LINE",
"322 700 LINE",
"324 356 LINE",
"226 700 LINE",
"22 700 LINE",
"22 0 LINE"
);
}
);
width = 530;
},
{
associatedMasterId = "262880E7-CFE1-4BDA-902E-E24798F3240A";
layerId = "B68339A5-228C-407B-A604-C2C0356B3DF7";
name = "{95,100}";
paths = (
{
closed = 1;
nodes = (
"162 0 LINE",
"162 463 LINE",
"369 0 LINE",
"462 0 LINE",
"462 700 LINE",
"367 700 LINE",
"367 229 LINE",
"160 700 LINE",
"66 700 LINE",
"66 0 LINE"
);
}
);
width = 528;
}
);
unicode = 004E;
},
{
glyphname = O;
lastChange = "2016-11-17 06:24:42 +0000";
layers = (
{
layerId = "262880E7-CFE1-4BDA-902E-E24798F3240A";
paths = (
{
closed = 1;
nodes = (
"371 -9 OFFCURVE",
"442 56 OFFCURVE",
"442 154 CURVE SMOOTH",
"442 546 LINE SMOOTH",
"442 644 OFFCURVE",
"371 709 OFFCURVE",
"261 709 CURVE SMOOTH",
"151 709 OFFCURVE",
"80 644 OFFCURVE",
"80 546 CURVE SMOOTH",
"80 154 LINE SMOOTH",
"80 56 OFFCURVE",
"151 -9 OFFCURVE",
"261 -9 CURVE SMOOTH"
);
},
{
closed = 1;
nodes = (
"164 12 OFFCURVE",
"102 68 OFFCURVE",
"102 152 CURVE SMOOTH",
"102 548 LINE SMOOTH",
"102 632 OFFCURVE",
"164 688 OFFCURVE",
"261 688 CURVE SMOOTH",
"358 688 OFFCURVE",
"420 632 OFFCURVE",
"420 548 CURVE SMOOTH",
"420 152 LINE SMOOTH",
"420 68 OFFCURVE",
"358 12 OFFCURVE",
"261 12 CURVE SMOOTH"
);
}
);
width = 522;
},
{
layerId = "4E2227F3-52E4-4048-A8EE-327B486EF0A4";
paths = (
{
closed = 1;
nodes = (
"402 -12 OFFCURVE",
"498 78 OFFCURVE",
"498 214 CURVE SMOOTH",
"498 486 LINE SMOOTH",
"498 622 OFFCURVE",
"402 712 OFFCURVE",
"259 712 CURVE SMOOTH",
"116 712 OFFCURVE",
"20 622 OFFCURVE",
"20 486 CURVE SMOOTH",
"20 214 LINE SMOOTH",
"20 78 OFFCURVE",
"116 -12 OFFCURVE",
"259 -12 CURVE SMOOTH"
);
},
{
closed = 1;
nodes = (
"228 149 OFFCURVE",
"208 174 OFFCURVE",
"208 203 CURVE SMOOTH",
"208 497 LINE SMOOTH",
"208 526 OFFCURVE",
"228 551 OFFCURVE",
"259 551 CURVE SMOOTH",
"290 551 OFFCURVE",
"310 526 OFFCURVE",
"310 497 CURVE SMOOTH",
"310 203 LINE SMOOTH",
"310 174 OFFCURVE",
"290 149 OFFCURVE",
"259 149 CURVE SMOOTH"
);
}
);
width = 518;
},
{
associatedMasterId = "262880E7-CFE1-4BDA-902E-E24798F3240A";
layerId = "C54DB89B-6500-4B9B-BC80-E29993877229";
name = "{95,100}";
paths = (
{
closed = 1;
nodes = (
"390 -10 OFFCURVE",
"472 66 OFFCURVE",
"472 180 CURVE SMOOTH",
"472 520 LINE SMOOTH",
"472 634 OFFCURVE",
"390 710 OFFCURVE",
"266 710 CURVE SMOOTH",
"141 710 OFFCURVE",
"60 634 OFFCURVE",
"60 520 CURVE SMOOTH",
"60 180 LINE SMOOTH",
"60 66 OFFCURVE",
"141 -10 OFFCURVE",
"266 -10 CURVE SMOOTH"
);
},
{
closed = 1;
nodes = (
"198 80 OFFCURVE",
"154 122 OFFCURVE",
"154 182 CURVE SMOOTH",
"154 518 LINE SMOOTH",
"154 578 OFFCURVE",
"198 620 OFFCURVE",
"266 620 CURVE SMOOTH",
"334 620 OFFCURVE",
"378 578 OFFCURVE",
"378 518 CURVE SMOOTH",
"378 182 LINE SMOOTH",
"378 122 OFFCURVE",
"334 80 OFFCURVE",
"266 80 CURVE SMOOTH"
);
}
);
width = 532;
}
);
unicode = 004F;
},
{
glyphname = P;
lastChange = "2016-11-17 06:24:42 +0000";
layers = (
{
layerId = "262880E7-CFE1-4BDA-902E-E24798F3240A";
paths = (
{
closed = 1;
nodes = (
"111 0 LINE",
"111 680 LINE",
"288 680 LINE SMOOTH",
"372 680 OFFCURVE",
"428 616 OFFCURVE",
"428 520 CURVE SMOOTH",
"428 424 OFFCURVE",
"372 360 OFFCURVE",
"288 360 CURVE SMOOTH",
"106 360 LINE",
"106 340 LINE",
"286 340 LINE SMOOTH",
"384 340 OFFCURVE",
"449 411 OFFCURVE",
"449 520 CURVE SMOOTH",
"449 629 OFFCURVE",
"384 702 OFFCURVE",
"286 702 CURVE SMOOTH",
"88 702 LINE",
"88 0 LINE"
);
}
);
width = 513;
},
{
layerId = "4E2227F3-52E4-4048-A8EE-327B486EF0A4";
paths = (
{
closed = 1;
nodes = (
"210 0 LINE",
"210 530 LINE",
"245 530 LINE SMOOTH",
"277 530 OFFCURVE",
"299 508 OFFCURVE",
"299 476 CURVE SMOOTH",
"299 438 OFFCURVE",
"277 412 OFFCURVE",
"245 412 CURVE SMOOTH",
"194 412 LINE",
"194 247 LINE",
"277 247 LINE SMOOTH",
"403 247 OFFCURVE",
"487 339 OFFCURVE",
"487 476 CURVE SMOOTH",
"487 610 OFFCURVE",
"399 700 OFFCURVE",
"267 700 CURVE SMOOTH",
"22 700 LINE",
"22 0 LINE"
);
}
);
width = 503;
},
{
associatedMasterId = "262880E7-CFE1-4BDA-902E-E24798F3240A";
layerId = "41E0EFB1-CD42-4EA7-81EA-899E13145A58";
name = "{95,100}";
paths = (
{
closed = 1;
nodes = (
"161 0 LINE",
"161 611 LINE",
"276 611 LINE SMOOTH",
"338 611 OFFCURVE",
"379 567 OFFCURVE",
"379 501 CURVE SMOOTH",
"379 434 OFFCURVE",
"338 389 OFFCURVE",
"276 389 CURVE SMOOTH",
"151 389 LINE",
"151 300 LINE",
"289 300 LINE SMOOTH",
"399 300 OFFCURVE",
"472 380 OFFCURVE",
"472 501 CURVE SMOOTH",
"472 621 OFFCURVE",
"397 701 OFFCURVE",
"285 701 CURVE SMOOTH",
"66 701 LINE",
"66 0 LINE"
);
}
);
width = 520;
}
);
unicode = 0050;
},
{
glyphname = Q;
lastChange = "2016-11-17 08:59:54 +0000";
layers = (
{
layerId = "262880E7-CFE1-4BDA-902E-E24798F3240A";
paths = (
{
closed = 1;
nodes = (
"357 -9 OFFCURVE",
"426 56 OFFCURVE",
"426 154 CURVE SMOOTH",
"426 546 LINE SMOOTH",
"426 644 OFFCURVE",
"357 709 OFFCURVE",
"253 709 CURVE SMOOTH",
"149 709 OFFCURVE",
"80 644 OFFCURVE",
"80 546 CURVE SMOOTH",
"80 154 LINE SMOOTH",
"80 56 OFFCURVE",
"149 -9 OFFCURVE",
"253 -9 CURVE SMOOTH"
);
},
{
closed = 1;
nodes = (
"388 -51 LINE",
"189 16 LINE",
"189 0 LINE",
"388 -72 LINE"
);
},
{
closed = 1;
nodes = (
"162 12 OFFCURVE",
"102 68 OFFCURVE",
"102 152 CURVE SMOOTH",
"102 548 LINE SMOOTH",
"102 632 OFFCURVE",
"162 688 OFFCURVE",
"253 688 CURVE SMOOTH",
"344 688 OFFCURVE",
"404 632 OFFCURVE",
"404 548 CURVE SMOOTH",
"404 152 LINE SMOOTH",
"404 68 OFFCURVE",
"344 12 OFFCURVE",
"253 12 CURVE SMOOTH"
);
}
);
width = 522;
},
{
layerId = "4E2227F3-52E4-4048-A8EE-327B486EF0A4";
paths = (
{
closed = 1;
nodes = (
"398 -8 OFFCURVE",
"492 81 OFFCURVE",
"492 215 CURVE SMOOTH",
"492 485 LINE SMOOTH",
"492 619 OFFCURVE",
"398 708 OFFCURVE",
"256 708 CURVE SMOOTH",
"114 708 OFFCURVE",
"20 619 OFFCURVE",
"20 485 CURVE SMOOTH",
"20 215 LINE SMOOTH",
"20 81 OFFCURVE",
"114 -8 OFFCURVE",
"256 -8 CURVE SMOOTH"
);
},
{
closed = 1;
nodes = (
"508 73 LINE",
"200 118 LINE",
"181 1 LINE",
"483 -64 LINE"
);
},
{
closed = 1;
nodes = (
"227 162 OFFCURVE",
"208 182 OFFCURVE",
"208 213 CURVE SMOOTH",
"208 487 LINE SMOOTH",
"208 518 OFFCURVE",
"227 538 OFFCURVE",
"256 538 CURVE SMOOTH",
"285 538 OFFCURVE",
"304 518 OFFCURVE",
"304 487 CURVE SMOOTH",
"304 213 LINE SMOOTH",
"304 182 OFFCURVE",
"285 162 OFFCURVE",
"256 162 CURVE SMOOTH"
);
}
);
width = 518;
},
{
associatedMasterId = "262880E7-CFE1-4BDA-902E-E24798F3240A";
layerId = "657968FF-6B9D-4C67-A4EA-CA88CAD954BC";
name = "{95,100}";
paths = (
{
closed = 1;
nodes = (
"383 -9 OFFCURVE",
"464 67 OFFCURVE",
"464 181 CURVE SMOOTH",
"464 519 LINE SMOOTH",
"464 633 OFFCURVE",
"383 709 OFFCURVE",
"262 709 CURVE SMOOTH",
"140 709 OFFCURVE",
"60 633 OFFCURVE",
"60 519 CURVE SMOOTH",
"60 181 LINE SMOOTH",
"60 67 OFFCURVE",
"140 -9 OFFCURVE",
"262 -9 CURVE SMOOTH"
);
},
{
closed = 1;
nodes = (
"448 3 LINE",
"201 61 LINE",
"193 0 LINE",
"437 -69 LINE"
);
},
{
closed = 1;
nodes = (
"197 81 OFFCURVE",
"154 122 OFFCURVE",
"154 183 CURVE SMOOTH",
"154 517 LINE SMOOTH",
"154 578 OFFCURVE",
"197 619 OFFCURVE",
"262 619 CURVE SMOOTH",
"327 619 OFFCURVE",
"370 578 OFFCURVE",
"370 517 CURVE SMOOTH",
"370 183 LINE SMOOTH",
"370 122 OFFCURVE",
"327 81 OFFCURVE",
"262 81 CURVE SMOOTH"
);
}
);
width = 532;
}
);
leftKerningGroup = C;
unicode = 0051;
},
{
glyphname = R;
lastChange = "2016-11-17 06:24:42 +0000";
layers = (
{
layerId = "262880E7-CFE1-4BDA-902E-E24798F3240A";
paths = (
{
closed = 1;
nodes = (
"111 0 LINE",
"111 680 LINE",
"292 680 LINE SMOOTH",
"376 680 OFFCURVE",
"432 616 OFFCURVE",
"432 520 CURVE SMOOTH",
"432 424 OFFCURVE",
"376 360 OFFCURVE",
"292 360 CURVE SMOOTH",
"106 360 LINE",
"106 340 LINE",
"290 340 LINE SMOOTH",
"388 340 OFFCURVE",
"453 411 OFFCURVE",
"453 520 CURVE SMOOTH",
"453 629 OFFCURVE",
"388 702 OFFCURVE",
"290 702 CURVE SMOOTH",
"88 702 LINE",
"88 0 LINE"
);
},
{
closed = 1;
nodes = (
"431 0 LINE",
"310 349 LINE",
"292 341 LINE",
"409 0 LINE"
);
}
);
width = 501;
},
{
layerId = "4E2227F3-52E4-4048-A8EE-327B486EF0A4";
paths = (
{
closed = 1;
nodes = (
"210 0 LINE",
"210 530 LINE",
"256 530 LINE SMOOTH",
"290 530 OFFCURVE",
"312 506 OFFCURVE",
"312 469 CURVE SMOOTH",
"312 432 OFFCURVE",
"290 407 OFFCURVE",
"256 407 CURVE SMOOTH",
"194 407 LINE",
"194 254 LINE",
"290 254 LINE SMOOTH",
"416 254 OFFCURVE",
"500 342 OFFCURVE",
"500 474 CURVE SMOOTH",
"500 610 OFFCURVE",
"412 700 OFFCURVE",
"280 700 CURVE SMOOTH",
"22 700 LINE",
"22 0 LINE"
);
},
{
closed = 1;
nodes = (
"503 0 LINE",
"405 335 LINE",
"227 335 LINE",
"309 0 LINE"
);
}
);
width = 515;
},
{
associatedMasterId = "262880E7-CFE1-4BDA-902E-E24798F3240A";
layerId = "BE946EE3-8AE1-439A-A927-2CED285D2AD4";
name = "{95,100}";
paths = (
{
closed = 1;
nodes = (
"161 0 LINE",
"161 611 LINE",
"284 611 LINE SMOOTH",
"345 611 OFFCURVE",
"386 565 OFFCURVE",
"386 497 CURVE SMOOTH",
"386 426 OFFCURVE",
"345 379 OFFCURVE",
"284 379 CURVE SMOOTH",
"151 379 LINE",
"151 294 LINE",
"297 294 LINE SMOOTH",
"407 294 OFFCURVE",
"480 377 OFFCURVE",
"480 501 CURVE SMOOTH",
"480 621 OFFCURVE",
"405 701 OFFCURVE",
"292 701 CURVE SMOOTH",
"66 701 LINE",
"66 0 LINE"
);
},
{
closed = 1;
nodes = (
"469 0 LINE",
"358 343 LINE",
"271 338 LINE",
"372 0 LINE"
);
}
);
width = 510;
}
);
rightKerningGroup = R;
unicode = 0052;
},
{
glyphname = S;
lastChange = "2016-11-17 06:24:42 +0000";
layers = (
{
layerId = "262880E7-CFE1-4BDA-902E-E24798F3240A";
paths = (
{
closed = 1;
nodes = (
"342 -9 OFFCURVE",
"406 49 OFFCURVE",
"406 149 CURVE SMOOTH",
"406 254 OFFCURVE",
"323 307 OFFCURVE",
"241 359 CURVE SMOOTH",
"163 409 OFFCURVE",
"86 457 OFFCURVE",
"86 550 CURVE SMOOTH",
"86 637 OFFCURVE",
"140 688 OFFCURVE",
"232 688 CURVE SMOOTH",
"324 688 OFFCURVE",
"378 636 OFFCURVE",
"378 548 CURVE SMOOTH",
"378 500 LINE",
"400 500 LINE",
"400 549 LINE SMOOTH",
"400 650 OFFCURVE",
"338 709 OFFCURVE",
"232 709 CURVE SMOOTH",
"126 709 OFFCURVE",
"64 651 OFFCURVE",
"64 552 CURVE SMOOTH",
"64 448 OFFCURVE",
"147 395 OFFCURVE",
"228 343 CURVE SMOOTH",
"307 293 OFFCURVE",
"384 243 OFFCURVE",
"384 149 CURVE SMOOTH",
"384 63 OFFCURVE",
"328 12 OFFCURVE",
"233 12 CURVE SMOOTH",
"140 12 OFFCURVE",
"86 63 OFFCURVE",
"86 151 CURVE SMOOTH",
"86 210 LINE",
"66 210 LINE",
"66 150 LINE SMOOTH",
"66 50 OFFCURVE",
"128 -9 OFFCURVE",
"234 -9 CURVE SMOOTH"
);
}
);
width = 470;
},
{
layerId = "4E2227F3-52E4-4048-A8EE-327B486EF0A4";
paths = (
{
closed = 1;
nodes = (
"371 -8 OFFCURVE",
"460 70 OFFCURVE",
"460 187 CURVE SMOOTH",
"460 287 OFFCURVE",
"394 338 OFFCURVE",
"288 412 CURVE SMOOTH",
"221 459 OFFCURVE",
"201 470 OFFCURVE",
"201 500 CURVE SMOOTH",
"201 524 OFFCURVE",
"214 538 OFFCURVE",
"235 538 CURVE SMOOTH",
"256 538 OFFCURVE",
"270 524 OFFCURVE",
"270 504 CURVE SMOOTH",
"270 490 LINE",
"455 490 LINE",
"455 509 LINE SMOOTH",
"455 628 OFFCURVE",
"368 708 OFFCURVE",
"236 708 CURVE SMOOTH",
"103 708 OFFCURVE",
"16 628 OFFCURVE",
"16 510 CURVE SMOOTH",
"16 387 OFFCURVE",
"111 322 OFFCURVE",
"186 272 CURVE SMOOTH",
"259 223 OFFCURVE",
"275 215 OFFCURVE",
"275 194 CURVE SMOOTH",
"275 175 OFFCURVE",
"261 162 OFFCURVE",
"241 162 CURVE SMOOTH",
"220 162 OFFCURVE",
"206 176 OFFCURVE",
"206 198 CURVE SMOOTH",
"206 211 LINE",
"21 211 LINE",
"21 180 LINE SMOOTH",
"21 70 OFFCURVE",
"106 -8 OFFCURVE",
"239 -8 CURVE SMOOTH"
);
}
);
width = 476;
},
{
associatedMasterId = "262880E7-CFE1-4BDA-902E-E24798F3240A";
layerId = "27CF7A20-12ED-41D4-A25C-14FEEBE4A60B";
name = "{95,100}";
paths = (
{
closed = 1;
nodes = (
"342 -9 OFFCURVE",
"417 58 OFFCURVE",
"417 166 CURVE SMOOTH",
"417 268 OFFCURVE",
"341 321 OFFCURVE",
"248 382 CURVE SMOOTH",
"175 431 OFFCURVE",
"123 463 OFFCURVE",
"123 528 CURVE SMOOTH",
"123 588 OFFCURVE",
"159 619 OFFCURVE",
"220 619 CURVE SMOOTH",
"281 619 OFFCURVE",
"318 587 OFFCURVE",
"318 529 CURVE SMOOTH",
"318 496 LINE",
"411 496 LINE",
"411 532 LINE SMOOTH",
"411 640 OFFCURVE",
"338 709 OFFCURVE",
"221 709 CURVE SMOOTH",
"103 709 OFFCURVE",
"30 641 OFFCURVE",
"30 534 CURVE SMOOTH",
"30 421 OFFCURVE",
"118 363 OFFCURVE",
"197 312 CURVE SMOOTH",
"273 262 OFFCURVE",
"323 231 OFFCURVE",
"323 169 CURVE SMOOTH",
"323 112 OFFCURVE",
"286 81 OFFCURVE",
"223 81 CURVE SMOOTH",
"162 81 OFFCURVE",
"125 112 OFFCURVE",
"125 172 CURVE SMOOTH",
"125 210 LINE",
"33 210 LINE",
"33 163 LINE SMOOTH",
"33 59 OFFCURVE",
"105 -9 OFFCURVE",
"223 -9 CURVE SMOOTH"
);
}
);
width = 447;
}
);
leftKerningGroup = S;
rightKerningGroup = S;
unicode = 0053;
},
{
glyphname = T;
lastChange = "2016-11-17 06:24:42 +0000";
layers = (
{
layerId = "262880E7-CFE1-4BDA-902E-E24798F3240A";
paths = (
{
closed = 1;
nodes = (
"224 0 LINE",
"224 689 LINE",
"202 689 LINE",
"202 0 LINE"
);
},
{
closed = 1;
nodes = (
"402 679 LINE",
"402 700 LINE",
"32 700 LINE",
"32 679 LINE"
);
}
);
width = 418;
},
{
layerId = "4E2227F3-52E4-4048-A8EE-327B486EF0A4";
paths = (
{
closed = 1;
nodes = (
"334 0 LINE",
"334 689 LINE",
"146 689 LINE",
"146 0 LINE"
);
},
{
closed = 1;
nodes = (
"476 530 LINE",
"476 700 LINE",
"8 700 LINE",
"8 530 LINE"
);
}
);
width = 480;
},
{
associatedMasterId = "262880E7-CFE1-4BDA-902E-E24798F3240A";
layerId = "B94D5C64-F458-403F-8B9E-4B02C0AC7203";
name = "{95,100}";
paths = (
{
closed = 1;
nodes = (
"274 0 LINE",
"274 689 LINE",
"180 689 LINE",
"180 0 LINE"
);
},
{
closed = 1;
nodes = (
"436 610 LINE",
"436 700 LINE",
"24 700 LINE",
"24 610 LINE"
);
}
);
width = 448;
}
);
leftKerningGroup = T;
rightKerningGroup = T;
unicode = 0054;
},
{
glyphname = U;
lastChange = "2016-11-17 06:24:42 +0000";
layers = (
{
layerId = "262880E7-CFE1-4BDA-902E-E24798F3240A";
paths = (
{
closed = 1;
nodes = (
"374 -9 OFFCURVE",
"446 59 OFFCURVE",
"446 160 CURVE SMOOTH",
"446 700 LINE",
"424 700 LINE",
"424 156 LINE SMOOTH",
"424 70 OFFCURVE",
"361 12 OFFCURVE",
"267 12 CURVE SMOOTH",
"173 12 OFFCURVE",
"110 70 OFFCURVE",
"110 156 CURVE SMOOTH",
"110 700 LINE",
"88 700 LINE",
"88 160 LINE SMOOTH",
"88 59 OFFCURVE",
"160 -9 OFFCURVE",
"267 -9 CURVE SMOOTH"
);
}
);
width = 534;
},
{
layerId = "4E2227F3-52E4-4048-A8EE-327B486EF0A4";
paths = (
{
closed = 1;
nodes = (
"390 -8 OFFCURVE",
"482 77 OFFCURVE",
"482 208 CURVE SMOOTH",
"482 700 LINE",
"294 700 LINE",
"294 208 LINE SMOOTH",
"294 180 OFFCURVE",
"277 162 OFFCURVE",
"252 162 CURVE SMOOTH",
"227 162 OFFCURVE",
"210 180 OFFCURVE",
"210 208 CURVE SMOOTH",
"210 700 LINE",
"22 700 LINE",
"22 208 LINE SMOOTH",
"22 77 OFFCURVE",
"114 -8 OFFCURVE",
"252 -8 CURVE SMOOTH"
);
}
);
width = 504;
},
{
associatedMasterId = "262880E7-CFE1-4BDA-902E-E24798F3240A";
layerId = "A0AE8F4B-DC00-47F8-9374-9C55383FCF6B";
name = "{95,100}";
paths = (
{
closed = 1;
nodes = (
"388 -9 OFFCURVE",
"469 67 OFFCURVE",
"469 181 CURVE SMOOTH",
"469 700 LINE",
"374 700 LINE",
"374 183 LINE SMOOTH",
"374 122 OFFCURVE",
"331 81 OFFCURVE",
"267 81 CURVE SMOOTH",
"203 81 OFFCURVE",
"161 122 OFFCURVE",
"161 183 CURVE SMOOTH",
"161 700 LINE",
"66 700 LINE",
"66 181 LINE SMOOTH",
"66 67 OFFCURVE",
"147 -9 OFFCURVE",
"267 -9 CURVE SMOOTH"
);
}
);
width = 535;
}
);
leftKerningGroup = U;
rightKerningGroup = U;
unicode = 0055;
},
{
glyphname = V;
lastChange = "2016-11-17 06:24:42 +0000";
layers = (
{
layerId = "262880E7-CFE1-4BDA-902E-E24798F3240A";
paths = (
{
closed = 1;
nodes = (
"247 0 LINE",
"448 700 LINE",
"426 700 LINE",
"236 42 LINE",
"46 700 LINE",
"24 700 LINE",
"225 0 LINE"
);
}
);
width = 472;
},
{
layerId = "4E2227F3-52E4-4048-A8EE-327B486EF0A4";
paths = (
{
closed = 1;
nodes = (
"374 0 LINE",
"539 700 LINE",
"341 700 LINE",
"278 305 LINE",
"209 700 LINE",
"6 700 LINE",
"171 0 LINE"
);
}
);
width = 545;
}
);
unicode = 0056;
},
{
glyphname = W;
lastChange = "2016-11-17 06:30:14 +0000";
layers = (
{
layerId = "262880E7-CFE1-4BDA-902E-E24798F3240A";
paths = (
{
closed = 1;
nodes = (
"201 0 LINE",
"350 657 LINE",
"495 0 LINE",
"517 0 LINE",
"674 700 LINE",
"652 700 LINE",
"507 40 LINE",
"358 700 LINE",
"340 700 LINE",
"191 40 LINE",
"46 700 LINE",
"24 700 LINE",
"179 0 LINE"
);
}
);
width = 698;
},
{
layerId = "4E2227F3-52E4-4048-A8EE-327B486EF0A4";
paths = (
{
closed = 1;
nodes = (
"318 0 LINE",
"363 362 LINE",
"417 0 LINE",
"581 0 LINE",
"720 700 LINE",
"527 700 LINE",
"500 342 LINE",
"443 700 LINE",
"278 700 LINE",
"236 342 LINE",
"204 700 LINE",
"6 700 LINE",
"153 0 LINE"
);
}
);
width = 726;
},
{
associatedMasterId = "262880E7-CFE1-4BDA-902E-E24798F3240A";
layerId = "130BD5C2-5A44-42B2-A8B6-C9B87CBC8DB3";
name = "{95,100}";
paths = (
{
closed = 1;
nodes = (
"257 0 LINE",
"348 453 LINE",
"437 0 LINE",
"520 0 LINE",
"669 700 LINE",
"579 700 LINE",
"484 235 LINE",
"385 700 LINE",
"306 700 LINE",
"214 235 LINE",
"113 700 LINE",
"18 700 LINE",
"175 0 LINE"
);
}
);
width = 687;
}
);
leftKerningGroup = W;
rightKerningGroup = W;
unicode = 0057;
},
{
glyphname = X;
lastChange = "2016-11-17 06:24:42 +0000";
layers = (
{
layerId = "262880E7-CFE1-4BDA-902E-E24798F3240A";
paths = (
{
closed = 1;
nodes = (
"49 0 LINE",
"224 330 LINE",
"399 0 LINE",
"424 0 LINE",
"235 349 LINE",
"424 700 LINE",
"399 700 LINE",
"224 369 LINE",
"49 700 LINE",
"24 700 LINE",
"213 350 LINE",
"24 0 LINE"
);
}
);
width = 448;
},
{
layerId = "4E2227F3-52E4-4048-A8EE-327B486EF0A4";
paths = (
{
closed = 1;
nodes = (
"197 0 LINE",
"253 162 LINE",
"308 0 LINE",
"499 0 LINE",
"352 350 LINE",
"499 700 LINE",
"307 700 LINE",
"253 537 LINE",
"198 700 LINE",
"6 700 LINE",
"153 350 LINE",
"6 0 LINE"
);
}
);
width = 505;
}
);
unicode = 0058;
},
{
glyphname = Y;
lastChange = "2016-11-17 06:24:42 +0000";
layers = (
{
layerId = "262880E7-CFE1-4BDA-902E-E24798F3240A";
paths = (
{
closed = 1;
nodes = (
"231 0 LINE",
"231 339 LINE",
"416 700 LINE",
"394 700 LINE",
"220 358 LINE",
"46 700 LINE",
"24 700 LINE",
"209 339 LINE",
"209 0 LINE"
);
}
);
width = 440;
},
{
layerId = "4E2227F3-52E4-4048-A8EE-327B486EF0A4";
paths = (
{
closed = 1;
nodes = (
"356 2 LINE",
"356 287 LINE",
"519 700 LINE",
"321 700 LINE",
"263 492 LINE",
"204 700 LINE",
"6 700 LINE",
"168 287 LINE",
"168 2 LINE"
);
}
);
width = 525;
}
);
leftKerningGroup = Y;
rightKerningGroup = Y;
unicode = 0059;
},
{
glyphname = Z;
lastChange = "2016-11-17 06:24:42 +0000";
layers = (
{
layerId = "262880E7-CFE1-4BDA-902E-E24798F3240A";
paths = (
{
closed = 1;
nodes = (
"372 0 LINE",
"372 21 LINE",
"49 21 LINE",
"372 679 LINE",
"372 700 LINE",
"24 700 LINE",
"24 679 LINE",
"348 679 LINE",
"24 21 LINE",
"24 0 LINE"
);
}
);
width = 404;
},
{
layerId = "4E2227F3-52E4-4048-A8EE-327B486EF0A4";
paths = (
{
closed = 1;
nodes = (
"416 0 LINE",
"416 170 LINE",
"202 170 LINE",
"416 530 LINE",
"416 700 LINE",
"6 700 LINE",
"6 530 LINE",
"218 530 LINE",
"6 170 LINE",
"6 0 LINE"
);
}
);
width = 424;
}
);
leftKerningGroup = Z;
rightKerningGroup = Z;
unicode = 005A;
},
{
glyphname = a;
lastChange = "2016-11-17 08:59:46 +0000";
layers = (
{
components = (
{
name = a.bowl;
transform = "{1, 0, 0, 1, 64, 0}";
}
);
layerId = "262880E7-CFE1-4BDA-902E-E24798F3240A";
paths = (
{
closed = 1;
nodes = (
"401 0 LINE",
"401 500 LINE",
"379 500 LINE",
"379 0 LINE"
);
}
);
width = 473;
},
{
components = (
{
name = a.bowl;
transform = "{1, 0, 0, 1, 16, 0}";
}
);
layerId = "4E2227F3-52E4-4048-A8EE-327B486EF0A4";
paths = (
{
closed = 1;
nodes = (
"450 0 LINE",
"450 520 LINE",
"262 520 LINE",
"262 0 LINE"
);
}
);
width = 468;
},
{
associatedMasterId = "262880E7-CFE1-4BDA-902E-E24798F3240A";
components = (
{
name = a.bowl;
transform = "{1, 0, 0, 1, 43, 0}";
}
);
layerId = "B3FF5359-FBFA-47B2-BD2A-5A0E8F8E4EE4";
name = "{95,100}";
paths = (
{
closed = 1;
nodes = (
"422 0 LINE",
"422 509 LINE",
"328 509 LINE",
"328 0 LINE"
);
}
);
width = 471;
}
);
leftKerningGroup = a;
rightKerningGroup = a;
unicode = 0061;
},
{
glyphname = b;
lastChange = "2016-11-17 08:59:54 +0000";
layers = (
{
components = (
{
name = b.bowl;
transform = "{1, 0, 0, 1, 78, 0}";
}
);
layerId = "262880E7-CFE1-4BDA-902E-E24798F3240A";
paths = (
{
closed = 1;
nodes = (
"94 0 LINE",
"94 700 LINE",
"72 700 LINE",
"72 0 LINE"
);
}
);
width = 465;
},
{
components = (
{
name = b.bowl;
transform = "{1, 0, 0, 1, 169, 0}";
}
);
layerId = "4E2227F3-52E4-4048-A8EE-327B486EF0A4";
paths = (
{
closed = 1;
nodes = (
"206 0 LINE",
"206 700 LINE",
"18 700 LINE",
"18 0 LINE"
);
}
);
width = 466;
}
);
unicode = 0062;
},
{
glyphname = c;
lastChange = "2016-11-17 06:24:42 +0000";
layers = (
{
layerId = "262880E7-CFE1-4BDA-902E-E24798F3240A";
paths = (
{
closed = 1;
nodes = (
"328 -8 OFFCURVE",
"396 58 OFFCURVE",
"396 138 CURVE SMOOTH",
"396 139 LINE",
"374 139 LINE",
"374 135 LINE SMOOTH",
"374 70 OFFCURVE",
"314 13 OFFCURVE",
"226 13 CURVE SMOOTH",
"138 13 OFFCURVE",
"78 70 OFFCURVE",
"78 155 CURVE SMOOTH",
"78 345 LINE SMOOTH",
"78 430 OFFCURVE",
"138 487 OFFCURVE",
"226 487 CURVE SMOOTH",
"314 487 OFFCURVE",
"374 430 OFFCURVE",
"374 365 CURVE SMOOTH",
"374 361 LINE",
"396 361 LINE",
"396 362 LINE SMOOTH",
"396 442 OFFCURVE",
"328 508 OFFCURVE",
"226 508 CURVE SMOOTH",
"124 508 OFFCURVE",
"56 442 OFFCURVE",
"56 342 CURVE SMOOTH",
"56 158 LINE SMOOTH",
"56 58 OFFCURVE",
"124 -8 OFFCURVE",
"226 -8 CURVE SMOOTH"
);
}
);
width = 444;
},
{
layerId = "4E2227F3-52E4-4048-A8EE-327B486EF0A4";
paths = (
{
closed = 1;
nodes = (
"366 -7 OFFCURVE",
"454 59 OFFCURVE",
"454 172 CURVE SMOOTH",
"454 223 LINE",
"266 223 LINE",
"266 185 LINE SMOOTH",
"266 166 OFFCURVE",
"253 153 OFFCURVE",
"234 153 CURVE SMOOTH",
"215 153 OFFCURVE",
"202 166 OFFCURVE",
"202 185 CURVE SMOOTH",
"202 335 LINE SMOOTH",
"202 354 OFFCURVE",
"215 367 OFFCURVE",
"234 367 CURVE SMOOTH",
"253 367 OFFCURVE",
"266 354 OFFCURVE",
"266 335 CURVE SMOOTH",
"266 294 LINE",
"454 294 LINE",
"454 348 LINE SMOOTH",
"454 462 OFFCURVE",
"366 528 OFFCURVE",
"234 528 CURVE SMOOTH",
"102 528 OFFCURVE",
"14 462 OFFCURVE",
"14 348 CURVE SMOOTH",
"14 172 LINE SMOOTH",
"14 59 OFFCURVE",
"102 -7 OFFCURVE",
"234 -7 CURVE SMOOTH"
);
}
);
width = 466;
},
{
associatedMasterId = "262880E7-CFE1-4BDA-902E-E24798F3240A";
layerId = "ACF168AC-FE90-447F-BF07-96C78B49E18D";
name = "{95,100}";
paths = (
{
closed = 1;
nodes = (
"355 -8 OFFCURVE",
"432 58 OFFCURVE",
"432 153 CURVE SMOOTH",
"432 176 LINE",
"337 176 LINE",
"337 165 LINE SMOOTH",
"337 120 OFFCURVE",
"298 82 OFFCURVE",
"240 82 CURVE SMOOTH",
"182 82 OFFCURVE",
"143 120 OFFCURVE",
"143 176 CURVE SMOOTH",
"143 334 LINE SMOOTH",
"143 390 OFFCURVE",
"182 428 OFFCURVE",
"240 428 CURVE SMOOTH",
"298 428 OFFCURVE",
"337 390 OFFCURVE",
"337 345 CURVE SMOOTH",
"337 333 LINE",
"432 333 LINE",
"432 357 LINE SMOOTH",
"432 452 OFFCURVE",
"355 518 OFFCURVE",
"240 518 CURVE SMOOTH",
"125 518 OFFCURVE",
"48 452 OFFCURVE",
"48 346 CURVE SMOOTH",
"48 164 LINE SMOOTH",
"48 58 OFFCURVE",
"125 -8 OFFCURVE",
"240 -8 CURVE SMOOTH"
);
}
);
width = 468;
}
);
leftKerningGroup = c;
rightKerningGroup = c;
unicode = 0063;
},
{
glyphname = e;
lastChange = "2016-11-17 06:24:42 +0000";
layers = (
{
layerId = "262880E7-CFE1-4BDA-902E-E24798F3240A";
paths = (
{
closed = 1;
nodes = (
"330 -8 OFFCURVE",
"398 54 OFFCURVE",
"398 148 CURVE SMOOTH",
"398 149 LINE",
"376 149 LINE",
"376 145 LINE SMOOTH",
"376 66 OFFCURVE",
"316 13 OFFCURVE",
"227 13 CURVE SMOOTH",
"138 13 OFFCURVE",
"78 70 OFFCURVE",
"78 155 CURVE SMOOTH",
"78 345 LINE SMOOTH",
"78 430 OFFCURVE",
"138 487 OFFCURVE",
"227 487 CURVE SMOOTH",
"316 487 OFFCURVE",
"376 430 OFFCURVE",
"376 345 CURVE SMOOTH",
"376 262 LINE",
"68 262 LINE",
"68 241 LINE",
"398 241 LINE",
"398 342 LINE SMOOTH",
"398 442 OFFCURVE",
"330 508 OFFCURVE",
"227 508 CURVE SMOOTH",
"124 508 OFFCURVE",
"56 442 OFFCURVE",
"56 342 CURVE SMOOTH",
"56 158 LINE SMOOTH",
"56 58 OFFCURVE",
"124 -8 OFFCURVE",
"227 -8 CURVE SMOOTH"
);
}
);
width = 454;
},
{
layerId = "4E2227F3-52E4-4048-A8EE-327B486EF0A4";
paths = (
{
closed = 1;
nodes = (
"366 -7 OFFCURVE",
"454 59 OFFCURVE",
"454 172 CURVE SMOOTH",
"454 199 LINE",
"266 199 LINE",
"266 185 LINE SMOOTH",
"266 166 OFFCURVE",
"253 153 OFFCURVE",
"234 153 CURVE SMOOTH",
"215 153 OFFCURVE",
"202 166 OFFCURVE",
"202 185 CURVE SMOOTH",
"202 335 LINE SMOOTH",
"202 354 OFFCURVE",
"215 367 OFFCURVE",
"234 367 CURVE SMOOTH",
"253 367 OFFCURVE",
"266 354 OFFCURVE",
"266 335 CURVE SMOOTH",
"266 305 LINE",
"130 305 LINE",
"130 229 LINE",
"454 229 LINE",
"454 348 LINE SMOOTH",
"454 462 OFFCURVE",
"366 528 OFFCURVE",
"234 528 CURVE SMOOTH",
"102 528 OFFCURVE",
"14 462 OFFCURVE",
"14 348 CURVE SMOOTH",
"14 172 LINE SMOOTH",
"14 59 OFFCURVE",
"102 -7 OFFCURVE",
"234 -7 CURVE SMOOTH"
);
}
);
width = 468;
},
{
associatedMasterId = "262880E7-CFE1-4BDA-902E-E24798F3240A";
layerId = "97C22096-986C-4BA2-9F55-2CF144B537C3";
name = "{95,100}";
paths = (
{
closed = 1;
nodes = (
"354 -8 OFFCURVE",
"432 56 OFFCURVE",
"432 142 CURVE SMOOTH",
"432 143 LINE",
"338 143 LINE",
"338 143 LINE SMOOTH",
"338 115 OFFCURVE",
"298 82 OFFCURVE",
"241 82 CURVE SMOOTH",
"180 82 OFFCURVE",
"142 120 OFFCURVE",
"142 176 CURVE SMOOTH",
"142 334 LINE SMOOTH",
"142 390 OFFCURVE",
"181 428 OFFCURVE",
"240 428 CURVE SMOOTH",
"299 428 OFFCURVE",
"338 390 OFFCURVE",
"338 334 CURVE SMOOTH",
"338 299 LINE",
"105 299 LINE",
"105 216 LINE",
"432 216 LINE",
"432 346 LINE SMOOTH",
"432 449 OFFCURVE",
"355 518 OFFCURVE",
"240 518 CURVE SMOOTH",
"125 518 OFFCURVE",
"48 449 OFFCURVE",
"48 346 CURVE SMOOTH",
"48 164 LINE SMOOTH",
"48 61 OFFCURVE",
"124 -8 OFFCURVE",
"241 -8 CURVE SMOOTH"
);
}
);
width = 480;
}
);
leftKerningGroup = c;
rightKerningGroup = e;
unicode = 0065;
},
{
glyphname = f;
lastChange = "2016-11-17 08:59:46 +0000";
layers = (
{
layerId = "262880E7-CFE1-4BDA-902E-E24798F3240A";
paths = (
{
closed = 1;
nodes = (
"118 0 LINE",
"118 550 LINE SMOOTH",
"118 637 OFFCURVE",
"148 689 OFFCURVE",
"267 689 CURVE",
"267 710 LINE",
"134 710 OFFCURVE",
"96 650 OFFCURVE",
"96 550 CURVE SMOOTH",
"96 0 LINE"
);
},
{
closed = 1;
nodes = (
"237 479 LINE",
"237 500 LINE",
"17 500 LINE",
"17 479 LINE"
);
}
);
width = 269;
},
{
layerId = "4E2227F3-52E4-4048-A8EE-327B486EF0A4";
paths = (
{
closed = 1;
nodes = (
"212 0 LINE",
"212 539 LINE",
"212 557 OFFCURVE",
"226 572 OFFCURVE",
"256 575 CURVE",
"256 700 LINE",
"108 707 OFFCURVE",
"24 683 OFFCURVE",
"24 556 CURVE",
"24 0 LINE"
);
},
{
closed = 1;
nodes = (
"276 360 LINE",
"276 520 LINE",
"-21 520 LINE",
"-21 360 LINE"
);
}
);
width = 284;
},
{
associatedMasterId = "262880E7-CFE1-4BDA-902E-E24798F3240A";
layerId = "C2F74522-438E-462A-BECA-EA0F38E71471";
name = "{95,100}";
paths = (
{
closed = 1;
nodes = (
"203 0 LINE",
"203 524 LINE SMOOTH",
"203 600 OFFCURVE",
"226 615 OFFCURVE",
"306 617 CURVE",
"306 706 LINE",
"166 709 OFFCURVE",
"108 664 OFFCURVE",
"108 553 CURVE SMOOTH",
"108 0 LINE"
);
},
{
closed = 1;
nodes = (
"298 420 LINE",
"298 510 LINE",
"40 510 LINE",
"40 420 LINE"
);
}
);
width = 306;
}
);
leftKerningGroup = f;
unicode = 0066;
},
{
glyphname = g;
lastChange = "2016-11-17 06:24:42 +0000";
layers = (
{
layerId = "262880E7-CFE1-4BDA-902E-E24798F3240A";
paths = (
{
closed = 1;
nodes = (
"149 16 OFFCURVE",
"94 70 OFFCURVE",
"94 158 CURVE SMOOTH",
"94 342 LINE SMOOTH",
"94 430 OFFCURVE",
"149 484 OFFCURVE",
"239 484 CURVE SMOOTH",
"329 484 OFFCURVE",
"384 429 OFFCURVE",
"384 342 CURVE SMOOTH",
"384 158 LINE SMOOTH",
"384 70 OFFCURVE",
"329 16 OFFCURVE",
"239 16 CURVE SMOOTH"
);
},
{
closed = 1;
nodes = (
"333 -206 OFFCURVE",
"406 -140 OFFCURVE",
"406 0 CURVE SMOOTH",
"406 500 LINE",
"384 500 LINE",
"384 0 LINE SMOOTH",
"384 -126 OFFCURVE",
"318 -185 OFFCURVE",
"199 -181 CURVE",
"199 -202 LINE"
);
},
{
closed = 1;
nodes = (
"340 -5 OFFCURVE",
"403 58 OFFCURVE",
"403 161 CURVE SMOOTH",
"403 339 LINE SMOOTH",
"403 442 OFFCURVE",
"340 505 OFFCURVE",
"238 505 CURVE SMOOTH",
"135 505 OFFCURVE",
"72 442 OFFCURVE",
"72 339 CURVE SMOOTH",
"72 161 LINE SMOOTH",
"72 58 OFFCURVE",
"135 -5 OFFCURVE",
"238 -5 CURVE SMOOTH"
);
}
);
width = 478;
},
{
layerId = "4E2227F3-52E4-4048-A8EE-327B486EF0A4";
paths = (
{
closed = 1;
nodes = (
"218 164 OFFCURVE",
"206 177 OFFCURVE",
"206 197 CURVE SMOOTH",
"206 323 LINE SMOOTH",
"206 343 OFFCURVE",
"218 356 OFFCURVE",
"235 356 CURVE SMOOTH",
"252 356 OFFCURVE",
"264 343 OFFCURVE",
"264 323 CURVE SMOOTH",
"264 197 LINE SMOOTH",
"264 177 OFFCURVE",
"252 164 OFFCURVE",
"235 164 CURVE SMOOTH"
);
},
{
closed = 1;
nodes = (
"395 -226 OFFCURVE",
"452 -115 OFFCURVE",
"452 34 CURVE SMOOTH",
"452 520 LINE",
"264 520 LINE",
"264 34 LINE SMOOTH",
"264 -14 OFFCURVE",
"247 -47 OFFCURVE",
"103 -43 CURVE",
"103 -207 LINE"
);
},
{
closed = 1;
nodes = (
"240 -8 OFFCURVE",
"301 29 OFFCURVE",
"301 235 CURVE",
"301 323 LINE SMOOTH",
"301 521 OFFCURVE",
"210 528 OFFCURVE",
"167 528 CURVE SMOOTH",
"62 528 OFFCURVE",
"18 454 OFFCURVE",
"18 343 CURVE SMOOTH",
"18 177 LINE SMOOTH",
"18 66 OFFCURVE",
"62 -8 OFFCURVE",
"167 -8 CURVE SMOOTH"
);
}
);
width = 470;
},
{
associatedMasterId = "262880E7-CFE1-4BDA-902E-E24798F3240A";
layerId = "97FFB865-AE0E-434B-A77A-51F3D6BC7E36";
name = "{95,100}";
paths = (
{
closed = 1;
nodes = (
"178 83 OFFCURVE",
"142 119 OFFCURVE",
"142 178 CURVE SMOOTH",
"142 332 LINE SMOOTH",
"142 391 OFFCURVE",
"178 427 OFFCURVE",
"236 427 CURVE SMOOTH",
"294 427 OFFCURVE",
"330 391 OFFCURVE",
"330 333 CURVE SMOOTH",
"330 177 LINE SMOOTH",
"330 119 OFFCURVE",
"294 83 OFFCURVE",
"236 83 CURVE SMOOTH"
);
},
{
closed = 1;
nodes = (
"355 -205 OFFCURVE",
"424 -129 OFFCURVE",
"424 27 CURVE SMOOTH",
"424 510 LINE",
"330 510 LINE",
"330 15 LINE SMOOTH",
"330 -85 OFFCURVE",
"284 -119 OFFCURVE",
"155 -119 CURVE",
"155 -204 LINE"
);
},
{
closed = 1;
nodes = (
"285 -7 OFFCURVE",
"378 31 OFFCURVE",
"376 173 CURVE",
"376 337 LINE SMOOTH",
"376 479 OFFCURVE",
"285 517 OFFCURVE",
"206 517 CURVE SMOOTH",
"107 517 OFFCURVE",
"48 453 OFFCURVE",
"48 349 CURVE SMOOTH",
"48 161 LINE SMOOTH",
"48 57 OFFCURVE",
"107 -7 OFFCURVE",
"206 -7 CURVE SMOOTH"
);
}
);
width = 478;
}
);
leftKerningGroup = g;
unicode = 0067;
},
{
glyphname = h;
lastChange = "2016-11-17 08:59:46 +0000";
layers = (
{
components = (
{
name = n.curve;
transform = "{1, 0, 0, 1, 76, 0}";
}
);
layerId = "262880E7-CFE1-4BDA-902E-E24798F3240A";
paths = (
{
closed = 1;
nodes = (
"94 0 LINE",
"94 700 LINE",
"72 700 LINE",
"72 0 LINE"
);
}
);
width = 460;
},
{
components = (
{
name = n.curve;
transform = "{1, 0, 0, 1, 169, 0}";
}
);
layerId = "4E2227F3-52E4-4048-A8EE-327B486EF0A4";
paths = (
{
closed = 1;
nodes = (
"206 0 LINE",
"206 700 LINE",
"18 700 LINE",
"18 0 LINE"
);
}
);
width = 466;
}
);
leftKerningGroup = b;
rightKerningGroup = h;
unicode = 0068;
},
{
glyphname = i;
lastChange = "2016-11-17 06:24:42 +0000";
layers = (
{
layerId = "262880E7-CFE1-4BDA-902E-E24798F3240A";
paths = (
{
closed = 1;
nodes = (
"102 0 LINE",
"102 500 LINE",
"80 500 LINE",
"80 0 LINE"
);
},
{
closed = 1;
nodes = (
"108 659 OFFCURVE",
"122 673 OFFCURVE",
"122 690 CURVE SMOOTH",
"122 706 OFFCURVE",
"108 720 OFFCURVE",
"91 720 CURVE SMOOTH",
"74 720 OFFCURVE",
"60 706 OFFCURVE",
"60 690 CURVE SMOOTH",
"60 673 OFFCURVE",
"74 659 OFFCURVE",
"91 659 CURVE SMOOTH"
);
}
);
width = 182;
},
{
layerId = "4E2227F3-52E4-4048-A8EE-327B486EF0A4";
paths = (
{
closed = 1;
nodes = (
"208 0 LINE",
"208 520 LINE",
"20 520 LINE",
"20 0 LINE"
);
},
{
closed = 1;
nodes = (
"177 540 OFFCURVE",
"219 582 OFFCURVE",
"219 645 CURVE SMOOTH",
"219 708 OFFCURVE",
"177 750 OFFCURVE",
"114 750 CURVE SMOOTH",
"51 750 OFFCURVE",
"9 708 OFFCURVE",
"9 645 CURVE SMOOTH",
"9 582 OFFCURVE",
"51 540 OFFCURVE",
"114 540 CURVE SMOOTH"
);
}
);
width = 228;
}
);
leftKerningGroup = i;
unicode = 0069;
},
{
glyphname = j;
lastChange = "2016-11-17 06:24:42 +0000";
layers = (
{
layerId = "262880E7-CFE1-4BDA-902E-E24798F3240A";
paths = (
{
closed = 1;
nodes = (
"66 -211 OFFCURVE",
"118 -159 OFFCURVE",
"118 -74 CURVE SMOOTH",
"118 500 LINE",
"96 500 LINE",
"96 -74 LINE SMOOTH",
"96 -146 OFFCURVE",
"53 -190 OFFCURVE",
"-18 -190 CURVE",
"-18 -211 LINE"
);
},
{
closed = 1;
nodes = (
"126 669 OFFCURVE",
"138 681 OFFCURVE",
"138 700 CURVE SMOOTH",
"138 719 OFFCURVE",
"126 730 OFFCURVE",
"107 730 CURVE SMOOTH",
"88 730 OFFCURVE",
"76 719 OFFCURVE",
"76 700 CURVE SMOOTH",
"76 681 OFFCURVE",
"88 669 OFFCURVE",
"107 669 CURVE SMOOTH"
);
}
);
width = 198;
},
{
layerId = "4E2227F3-52E4-4048-A8EE-327B486EF0A4";
paths = (
{
closed = 1;
nodes = (
"205 -210 OFFCURVE",
"212 -120 OFFCURVE",
"212 29 CURVE SMOOTH",
"212 495 LINE",
"24 495 LINE",
"24 29 LINE SMOOTH",
"24 -19 OFFCURVE",
"7 -49 OFFCURVE",
"-77 -41 CURVE",
"-77 -201 LINE"
);
},
{
closed = 1;
nodes = (
"180 515 OFFCURVE",
"223 562 OFFCURVE",
"223 620 CURVE SMOOTH",
"223 678 OFFCURVE",
"171 724 OFFCURVE",
"118 724 CURVE SMOOTH",
"65 724 OFFCURVE",
"13 678 OFFCURVE",
"13 620 CURVE SMOOTH",
"13 562 OFFCURVE",
"56 515 OFFCURVE",
"118 515 CURVE SMOOTH"
);
}
);
width = 232;
}
);
leftKerningGroup = j;
unicode = 006A;
},
{
glyphname = k;
lastChange = "2016-11-17 06:24:42 +0000";
layers = (
{
guideLines = (
{
angle = 180;
position = "{267, 0}";
showMeasurement = 1;
},
{
angle = 180;
position = "{213, 332}";
showMeasurement = 1;
}
);
layerId = "262880E7-CFE1-4BDA-902E-E24798F3240A";
paths = (
{
closed = 1;
nodes = (
"333 500 LINE",
"102 269 LINE",
"102 700 LINE",
"80 700 LINE",
"80 0 LINE",
"102 0 LINE",
"102 231 LINE",
"333 0 LINE",
"359 0 LINE",
"109 250 LINE",
"359 500 LINE"
);
}
);
width = 359;
},
{
layerId = "4E2227F3-52E4-4048-A8EE-327B486EF0A4";
paths = (
{
closed = 1;
nodes = (
"270 520 LINE",
"208 365 LINE",
"208 700 LINE",
"20 700 LINE",
"20 0 LINE",
"208 0 LINE",
"208 135 LINE",
"264 0 LINE",
"474 0 LINE",
"325 261 LINE",
"476 520 LINE"
);
}
);
width = 476;
}
);
leftKerningGroup = b;
rightKerningGroup = k;
unicode = 006B;
},
{
glyphname = l;
lastChange = "2016-11-17 06:24:42 +0000";
layers = (
{
layerId = "262880E7-CFE1-4BDA-902E-E24798F3240A";
paths = (
{
closed = 1;
nodes = (
"102 0 LINE",
"102 700 LINE",
"80 700 LINE",
"80 0 LINE"
);
}
);
width = 182;
},
{
layerId = "4E2227F3-52E4-4048-A8EE-327B486EF0A4";
paths = (
{
closed = 1;
nodes = (
"208 0 LINE",
"208 700 LINE",
"20 700 LINE",
"20 0 LINE"
);
}
);
width = 228;
}
);
leftKerningGroup = l;
rightKerningGroup = l;
unicode = 006C;
},
{
glyphname = m;
lastChange = "2016-11-17 06:24:42 +0000";
layers = (
{
layerId = "262880E7-CFE1-4BDA-902E-E24798F3240A";
paths = (
{
closed = 1;
nodes = (
"694 0 LINE",
"694 344 LINE SMOOTH",
"694 443 OFFCURVE",
"635 504 OFFCURVE",
"540 504 CURVE SMOOTH",
"438 504 OFFCURVE",
"375 443 OFFCURVE",
"375 343 CURVE",
"394 343 LINE",
"393 428 OFFCURVE",
"448 483 OFFCURVE",
"538 483 CURVE SMOOTH",
"621 483 OFFCURVE",
"672 429 OFFCURVE",
"672 341 CURVE SMOOTH",
"672 0 LINE"
);
},
{
closed = 1;
nodes = (
"394 0 LINE",
"394 344 LINE SMOOTH",
"394 443 OFFCURVE",
"335 504 OFFCURVE",
"240 504 CURVE SMOOTH",
"138 504 OFFCURVE",
"76 443 OFFCURVE",
"76 343 CURVE",
"94 343 LINE",
"94 430 OFFCURVE",
"149 483 OFFCURVE",
"238 483 CURVE SMOOTH",
"321 483 OFFCURVE",
"372 429 OFFCURVE",
"372 341 CURVE SMOOTH",
"372 0 LINE"
);
},
{
closed = 1;
nodes = (
"94 0 LINE",
"94 500 LINE",
"72 500 LINE",
"72 0 LINE"
);
}
);
width = 750;
},
{
layerId = "4E2227F3-52E4-4048-A8EE-327B486EF0A4";
paths = (
{
closed = 1;
nodes = (
"698 0 LINE",
"698 328 LINE SMOOTH",
"698 439 OFFCURVE",
"654 508 OFFCURVE",
"549 508 CURVE SMOOTH",
"506 508 OFFCURVE",
"411 501 OFFCURVE",
"415 303 CURVE",
"452 303 LINE",
"452 323 OFFCURVE",
"464 336 OFFCURVE",
"481 336 CURVE SMOOTH",
"498 336 OFFCURVE",
"510 323 OFFCURVE",
"510 303 CURVE SMOOTH",
"510 0 LINE"
);
},
{
closed = 1;
nodes = (
"452 0 LINE",
"452 328 LINE SMOOTH",
"452 439 OFFCURVE",
"408 508 OFFCURVE",
"303 508 CURVE SMOOTH",
"260 508 OFFCURVE",
"165 501 OFFCURVE",
"169 303 CURVE",
"206 303 LINE",
"206 323 OFFCURVE",
"218 336 OFFCURVE",
"235 336 CURVE SMOOTH",
"252 336 OFFCURVE",
"264 323 OFFCURVE",
"264 303 CURVE SMOOTH",
"264 0 LINE"
);
},
{
closed = 1;
nodes = (
"206 0 LINE",
"206 500 LINE",
"18 500 LINE",
"18 0 LINE"
);
}
);
width = 712;
}
);
leftKerningGroup = m;
rightKerningGroup = h;
unicode = 006D;
},
{
glyphname = n;
lastChange = "2016-11-17 09:00:02 +0000";
layers = (
{
components = (
{
name = n.curve;
transform = "{1, 0, 0, 1, 76, 0}";
}
);
layerId = "262880E7-CFE1-4BDA-902E-E24798F3240A";
paths = (
{
closed = 1;
nodes = (
"94 0 LINE",
"94 500 LINE",
"72 500 LINE",
"72 0 LINE"
);
}
);
width = 460;
},
{
components = (
{
name = n.curve;
transform = "{1, 0, 0, 1, 169, 0}";
}
);
layerId = "4E2227F3-52E4-4048-A8EE-327B486EF0A4";
paths = (
{
closed = 1;
nodes = (
"206 0 LINE",
"206 520 LINE",
"18 520 LINE",
"18 0 LINE"
);
}
);
width = 466;
},
{
associatedMasterId = "262880E7-CFE1-4BDA-902E-E24798F3240A";
components = (
{
name = n.curve;
transform = "{1, 0, 0, 1, 119, 0}";
}
);
layerId = "8DF595EC-D94A-4FD2-B88C-3F249F3EE58C";
name = "Medium{95,100}";
paths = (
{
closed = 1;
nodes = (
"160 0 LINE",
"160 500 LINE",
"65 500 LINE",
"65 0 LINE"
);
}
);
width = 494;
}
);
leftKerningGroup = m;
rightKerningGroup = h;
unicode = 006E;
},
{
glyphname = o;
lastChange = "2016-11-17 06:55:47 +0000";
layers = (
{
guideLines = (
{
angle = 180;
position = "{219, 250}";
showMeasurement = 1;
},
{
angle = 120;
position = "{219, 250}";
showMeasurement = 1;
},
{
angle = 60;
position = "{219, 250}";
showMeasurement = 1;
}
);
layerId = "262880E7-CFE1-4BDA-902E-E24798F3240A";
paths = (
{
closed = 1;
nodes = (
"322 -8 OFFCURVE",
"390 58 OFFCURVE",
"390 158 CURVE SMOOTH",
"390 342 LINE SMOOTH",
"390 442 OFFCURVE",
"322 508 OFFCURVE",
"219 508 CURVE SMOOTH",
"116 508 OFFCURVE",
"48 442 OFFCURVE",
"48 342 CURVE SMOOTH",
"48 158 LINE SMOOTH",
"48 58 OFFCURVE",
"116 -8 OFFCURVE",
"219 -8 CURVE SMOOTH"
);
},
{
closed = 1;
nodes = (
"130 13 OFFCURVE",
"70 70 OFFCURVE",
"70 155 CURVE SMOOTH",
"70 345 LINE SMOOTH",
"70 430 OFFCURVE",
"130 487 OFFCURVE",
"219 487 CURVE SMOOTH",
"308 487 OFFCURVE",
"368 430 OFFCURVE",
"368 345 CURVE SMOOTH",
"368 155 LINE SMOOTH",
"368 70 OFFCURVE",
"308 13 OFFCURVE",
"219 13 CURVE SMOOTH"
);
}
);
width = 438;
},
{
layerId = "4E2227F3-52E4-4048-A8EE-327B486EF0A4";
paths = (
{
closed = 1;
nodes = (
"364 -7 OFFCURVE",
"452 59 OFFCURVE",
"452 172 CURVE SMOOTH",
"452 348 LINE SMOOTH",
"452 462 OFFCURVE",
"364 532 OFFCURVE",
"232 532 CURVE SMOOTH",
"100 532 OFFCURVE",
"12 462 OFFCURVE",
"12 348 CURVE SMOOTH",
"12 172 LINE SMOOTH",
"12 59 OFFCURVE",
"100 -7 OFFCURVE",
"232 -7 CURVE SMOOTH"
);
},
{
closed = 1;
nodes = (
"213 153 OFFCURVE",
"200 166 OFFCURVE",
"200 185 CURVE SMOOTH",
"200 335 LINE SMOOTH",
"200 354 OFFCURVE",
"213 367 OFFCURVE",
"232 367 CURVE SMOOTH",
"251 367 OFFCURVE",
"264 354 OFFCURVE",
"264 335 CURVE SMOOTH",
"264 185 LINE SMOOTH",
"264 166 OFFCURVE",
"251 153 OFFCURVE",
"232 153 CURVE SMOOTH"
);
}
);
width = 464;
},
{
associatedMasterId = "262880E7-CFE1-4BDA-902E-E24798F3240A";
guideLines = (
{
angle = 180;
position = "{227, 250}";
showMeasurement = 1;
},
{
angle = 120;
position = "{227, 250}";
showMeasurement = 1;
},
{
angle = 60;
position = "{227, 250}";
showMeasurement = 1;
}
);
layerId = "DDD177BB-467D-491E-BE2C-0301FA3F2D98";
name = "{95,100}";
paths = (
{
closed = 1;
nodes = (
"346 -8 OFFCURVE",
"422 58 OFFCURVE",
"422 164 CURVE SMOOTH",
"422 345 LINE SMOOTH",
"422 451 OFFCURVE",
"346 518 OFFCURVE",
"230 518 CURVE SMOOTH",
"114 518 OFFCURVE",
"38 451 OFFCURVE",
"38 345 CURVE SMOOTH",
"38 164 LINE SMOOTH",
"38 58 OFFCURVE",
"114 -8 OFFCURVE",
"230 -8 CURVE SMOOTH"
);
},
{
closed = 1;
nodes = (
"172 82 OFFCURVE",
"132 120 OFFCURVE",
"132 176 CURVE SMOOTH",
"132 334 LINE SMOOTH",
"132 390 OFFCURVE",
"172 428 OFFCURVE",
"230 428 CURVE SMOOTH",
"289 428 OFFCURVE",
"328 390 OFFCURVE",
"328 334 CURVE SMOOTH",
"328 176 LINE SMOOTH",
"328 120 OFFCURVE",
"289 82 OFFCURVE",
"230 82 CURVE SMOOTH"
);
}
);
width = 460;
}
);
unicode = 006F;
},
{
glyphname = r;
lastChange = "2016-11-17 06:24:42 +0000";
layers = (
{
layerId = "262880E7-CFE1-4BDA-902E-E24798F3240A";
paths = (
{
closed = 1;
nodes = (
"94 341 LINE",
"94 429 OFFCURVE",
"151 479 OFFCURVE",
"233 479 CURVE SMOOTH",
"258 479 OFFCURVE",
"273 474 OFFCURVE",
"288 466 CURVE",
"299 489 LINE",
"282 498 OFFCURVE",
"264 504 OFFCURVE",
"234 504 CURVE SMOOTH",
"140 504 OFFCURVE",
"78 448 OFFCURVE",
"78 341 CURVE"
);
},
{
closed = 1;
nodes = (
"94 0 LINE",
"94 500 LINE",
"72 500 LINE",
"72 0 LINE"
);
}
);
width = 323;
},
{
layerId = "4E2227F3-52E4-4048-A8EE-327B486EF0A4";
paths = (
{
closed = 1;
nodes = (
"206 273 LINE",
"206 294 OFFCURVE",
"221 318 OFFCURVE",
"244 327 CURVE SMOOTH",
"270 337 OFFCURVE",
"309 333 OFFCURVE",
"319 325 CURVE",
"351 499 LINE",
"347 507 OFFCURVE",
"328 527 OFFCURVE",
"288 527 CURVE SMOOTH",
"212 527 OFFCURVE",
"155 443 OFFCURVE",
"155 273 CURVE"
);
},
{
closed = 1;
nodes = (
"206 1 LINE",
"206 520 LINE",
"18 520 LINE",
"18 1 LINE"
);
}
);
width = 357;
},
{
associatedMasterId = "262880E7-CFE1-4BDA-902E-E24798F3240A";
layerId = "EFB78039-9193-4934-86FF-226AD1A12AD0";
name = "{95,100}";
paths = (
{
closed = 1;
nodes = (
"148 309 LINE",
"148 368 OFFCURVE",
"188 403 OFFCURVE",
"243 410 CURVE SMOOTH",
"268 413 OFFCURVE",
"294 410 OFFCURVE",
"307 402 CURVE",
"327 495 LINE",
"316 504 OFFCURVE",
"297 516 OFFCURVE",
"263 516 CURVE SMOOTH",
"177 516 OFFCURVE",
"111 453 OFFCURVE",
"111 309 CURVE"
);
},
{
closed = 1;
nodes = (
"148 0 LINE",
"148 510 LINE",
"54 510 LINE",
"54 0 LINE"
);
}
);
width = 327;
}
);
leftKerningGroup = m;
rightKerningGroup = r;
unicode = 0072;
},
{
glyphname = s;
lastChange = "2016-11-17 06:24:42 +0000";
layers = (
{
layerId = "262880E7-CFE1-4BDA-902E-E24798F3240A";
paths = (
{
closed = 1;
nodes = (
"306 -4 OFFCURVE",
"366 43 OFFCURVE",
"366 123 CURVE SMOOTH",
"366 211 OFFCURVE",
"293 231 OFFCURVE",
"202 263 CURVE SMOOTH",
"109 295 OFFCURVE",
"64 317 OFFCURVE",
"64 378 CURVE SMOOTH",
"64 443 OFFCURVE",
"115 483 OFFCURVE",
"201 483 CURVE SMOOTH",
"290 483 OFFCURVE",
"342 441 OFFCURVE",
"342 369 CURVE SMOOTH",
"342 344 LINE",
"364 344 LINE",
"364 369 LINE SMOOTH",
"364 454 OFFCURVE",
"304 504 OFFCURVE",
"202 504 CURVE SMOOTH",
"101 504 OFFCURVE",
"42 456 OFFCURVE",
"42 378 CURVE SMOOTH",
"42 295 OFFCURVE",
"109 273 OFFCURVE",
"198 242 CURVE SMOOTH",
"293 209 OFFCURVE",
"344 189 OFFCURVE",
"344 123 CURVE SMOOTH",
"344 57 OFFCURVE",
"292 17 OFFCURVE",
"204 17 CURVE SMOOTH",
"115 17 OFFCURVE",
"62 57 OFFCURVE",
"62 126 CURVE SMOOTH",
"62 157 LINE",
"40 157 LINE",
"40 126 LINE SMOOTH",
"40 44 OFFCURVE",
"101 -4 OFFCURVE",
"204 -4 CURVE SMOOTH"
);
}
);
width = 414;
},
{
layerId = "4E2227F3-52E4-4048-A8EE-327B486EF0A4";
paths = (
{
closed = 1;
nodes = (
"363 -8 OFFCURVE",
"439 48 OFFCURVE",
"439 137 CURVE SMOOTH",
"439 221 OFFCURVE",
"385 271 OFFCURVE",
"273 304 CURVE SMOOTH",
"222 319 OFFCURVE",
"195 325 OFFCURVE",
"195 344 CURVE SMOOTH",
"195 355 OFFCURVE",
"203 363 OFFCURVE",
"222 363 CURVE SMOOTH",
"242 363 OFFCURVE",
"252 354 OFFCURVE",
"252 337 CURVE SMOOTH",
"252 336 LINE",
"427 336 LINE",
"427 336 LINE SMOOTH",
"427 463 OFFCURVE",
"358 528 OFFCURVE",
"221 528 CURVE SMOOTH",
"82 528 OFFCURVE",
"15 466 OFFCURVE",
"15 368 CURVE SMOOTH",
"15 281 OFFCURVE",
"66 221 OFFCURVE",
"176 195 CURVE SMOOTH",
"227 183 OFFCURVE",
"244 168 OFFCURVE",
"244 155 CURVE SMOOTH",
"244 145 OFFCURVE",
"236 139 OFFCURVE",
"219 139 CURVE SMOOTH",
"198 139 OFFCURVE",
"189 150 OFFCURVE",
"189 165 CURVE SMOOTH",
"189 166 LINE",
"10 166 LINE",
"10 166 LINE",
"10 49 OFFCURVE",
"72 -8 OFFCURVE",
"226 -8 CURVE SMOOTH"
);
}
);
width = 451;
},
{
associatedMasterId = "262880E7-CFE1-4BDA-902E-E24798F3240A";
layerId = "2F89E25A-9421-408A-A71F-A73137EE6AE7";
name = "{95,100}";
paths = (
{
closed = 1;
nodes = (
"340 -5 OFFCURVE",
"409 45 OFFCURVE",
"409 134 CURVE SMOOTH",
"409 239 OFFCURVE",
"319 260 OFFCURVE",
"243 290 CURVE SMOOTH",
"183 314 OFFCURVE",
"131 325 OFFCURVE",
"131 371 CURVE SMOOTH",
"131 409 OFFCURVE",
"169 428 OFFCURVE",
"217 428 CURVE SMOOTH",
"275 428 OFFCURVE",
"309 398 OFFCURVE",
"309 349 CURVE SMOOTH",
"309 347 LINE",
"404 347 LINE",
"404 370 LINE SMOOTH",
"404 463 OFFCURVE",
"338 518 OFFCURVE",
"221 518 CURVE SMOOTH",
"106 518 OFFCURVE",
"36 466 OFFCURVE",
"36 377 CURVE SMOOTH",
"36 288 OFFCURVE",
"102 247 OFFCURVE",
"170 223 CURVE SMOOTH",
"241 198 OFFCURVE",
"314 183 OFFCURVE",
"314 133 CURVE SMOOTH",
"314 91 OFFCURVE",
"274 82 OFFCURVE",
"226 82 CURVE SMOOTH",
"165 82 OFFCURVE",
"133 111 OFFCURVE",
"133 161 CURVE SMOOTH",
"133 162 LINE",
"38 162 LINE",
"38 137 LINE SMOOTH",
"38 47 OFFCURVE",
"104 -9 OFFCURVE",
"224 -7 CURVE SMOOTH"
);
}
);
width = 451;
}
);
leftKerningGroup = s;
rightKerningGroup = s;
unicode = 0073;
},
{
glyphname = t;
lastChange = "2016-11-17 06:24:42 +0000";
layers = (
{
layerId = "262880E7-CFE1-4BDA-902E-E24798F3240A";
paths = (
{
closed = 1;
nodes = (
"266 0 LINE",
"266 21 LINE",
"238 21 LINE SMOOTH",
"157 21 OFFCURVE",
"134 57 OFFCURVE",
"134 153 CURVE SMOOTH",
"134 610 LINE",
"112 610 LINE",
"112 153 LINE SMOOTH",
"112 43 OFFCURVE",
"144 0 OFFCURVE",
"238 0 CURVE SMOOTH"
);
},
{
closed = 1;
nodes = (
"266 479 LINE",
"266 500 LINE",
"38 500 LINE",
"38 479 LINE"
);
}
);
width = 314;
},
{
layerId = "4E2227F3-52E4-4048-A8EE-327B486EF0A4";
paths = (
{
closed = 1;
nodes = (
"272 5 LINE",
"272 169 LINE",
"271 169 LINE",
"218 164 OFFCURVE",
"216 172 OFFCURVE",
"216 221 CURVE SMOOTH",
"220 682 LINE",
"32 682 LINE",
"28 136 LINE SMOOTH",
"27 15 OFFCURVE",
"99 -21 OFFCURVE",
"271 5 CURVE"
);
},
{
closed = 1;
nodes = (
"271 360 LINE",
"271 520 LINE",
"-15 520 LINE",
"-15 360 LINE"
);
}
);
width = 284;
}
);
leftKerningGroup = t;
rightKerningGroup = t;
unicode = 0074;
},
{
glyphname = v;
lastChange = "2016-11-17 06:24:42 +0000";
layers = (
{
layerId = "262880E7-CFE1-4BDA-902E-E24798F3240A";
paths = (
{
closed = 1;
nodes = (
"215 0 LINE",
"384 500 LINE",
"359 500 LINE",
"204 33 LINE",
"49 500 LINE",
"24 500 LINE",
"193 0 LINE"
);
}
);
width = 416;
},
{
layerId = "4E2227F3-52E4-4048-A8EE-327B486EF0A4";
paths = (
{
closed = 1;
nodes = (
"338 -2 LINE",
"475 518 LINE",
"269 520 LINE",
"242 216 LINE",
"215 520 LINE",
"6 520 LINE",
"143 0 LINE"
);
}
);
width = 483;
}
);
unicode = 0076;
},
{
glyphname = w;
lastChange = "2016-11-17 06:24:42 +0000";
layers = (
{
layerId = "262880E7-CFE1-4BDA-902E-E24798F3240A";
paths = (
{
closed = 1;
nodes = (
"189 0 LINE",
"318 461 LINE",
"448 0 LINE",
"470 0 LINE",
"612 500 LINE",
"590 500 LINE",
"460 27 LINE",
"330 500 LINE",
"309 500 LINE",
"179 27 LINE",
"49 500 LINE",
"24 500 LINE",
"167 0 LINE"
);
}
);
width = 644;
},
{
layerId = "4E2227F3-52E4-4048-A8EE-327B486EF0A4";
paths = (
{
closed = 1;
nodes = (
"289 -2 LINE",
"326 211 LINE",
"363 0 LINE",
"527 -2 LINE",
"655 518 LINE",
"469 520 LINE",
"435 236 LINE",
"397 520 LINE",
"267 520 LINE",
"229 236 LINE",
"195 520 LINE",
"6 520 LINE",
"134 0 LINE"
);
}
);
width = 663;
},
{
associatedMasterId = "262880E7-CFE1-4BDA-902E-E24798F3240A";
layerId = "E3597918-BEF7-4A52-8D4A-AF02D251D940";
name = "{95,100}";
paths = (
{
closed = 1;
nodes = (
"231 -1 LINE",
"310 362 LINE",
"389 0 LINE",
"493 -1 LINE",
"623 509 LINE",
"530 510 LINE",
"447 116 LINE",
"359 510 LINE",
"267 510 LINE",
"179 116 LINE",
"97 510 LINE",
"0 510 LINE",
"131 0 LINE"
);
}
);
width = 647;
}
);
leftKerningGroup = w;
rightKerningGroup = w;
unicode = 0077;
},
{
glyphname = x;
lastChange = "2016-11-17 06:24:42 +0000";
layers = (
{
layerId = "262880E7-CFE1-4BDA-902E-E24798F3240A";
paths = (
{
closed = 1;
nodes = (
"49 0 LINE",
"208 233 LINE",
"367 0 LINE",
"392 0 LINE",
"219 250 LINE",
"392 500 LINE",
"367 500 LINE",
"208 267 LINE",
"49 500 LINE",
"24 500 LINE",
"197 250 LINE",
"24 0 LINE"
);
}
);
width = 424;
},
{
layerId = "4E2227F3-52E4-4048-A8EE-327B486EF0A4";
paths = (
{
closed = 1;
nodes = (
"204 0 LINE",
"239 108 LINE",
"274 0 LINE",
"472 0 LINE",
"326 260 LINE",
"472 520 LINE",
"274 520 LINE",
"239 418 LINE",
"204 520 LINE",
"6 520 LINE",
"152 260 LINE",
"6 0 LINE"
);
}
);
width = 480;
}
);
unicode = 0078;
},
{
glyphname = y;
lastChange = "2016-11-17 06:24:42 +0000";
layers = (
{
layerId = "262880E7-CFE1-4BDA-902E-E24798F3240A";
paths = (
{
closed = 1;
nodes = (
"129 -200 OFFCURVE",
"155 -188 OFFCURVE",
"198 -62 CURVE SMOOTH",
"388 500 LINE",
"366 500 LINE",
"209 27 LINE",
"46 500 LINE",
"24 500 LINE",
"199 0 LINE",
"151 -150 OFFCURVE",
"138 -181 OFFCURVE",
"61 -181 CURVE",
"61 -200 LINE"
);
}
);
width = 420;
},
{
layerId = "4E2227F3-52E4-4048-A8EE-327B486EF0A4";
paths = (
{
closed = 1;
nodes = (
"259 -198 OFFCURVE",
"291 -143 OFFCURVE",
"333 -2 CURVE",
"469 518 LINE",
"263 520 LINE",
"239 232 LINE",
"215 520 LINE",
"6 520 LINE",
"140 0 LINE",
"140 -21 OFFCURVE",
"141 -54 OFFCURVE",
"58 -52 CURVE",
"58 -198 LINE"
);
}
);
width = 477;
}
);
unicode = 0079;
},
{
glyphname = z;
lastChange = "2016-11-17 06:24:42 +0000";
layers = (
{
layerId = "262880E7-CFE1-4BDA-902E-E24798F3240A";
paths = (
{
closed = 1;
nodes = (
"366 0 LINE",
"366 21 LINE",
"56 21 LINE",
"376 479 LINE",
"376 500 LINE",
"36 500 LINE",
"36 479 LINE",
"352 479 LINE",
"32 21 LINE",
"32 0 LINE"
);
}
);
width = 416;
},
{
layerId = "4E2227F3-52E4-4048-A8EE-327B486EF0A4";
paths = (
{
closed = 1;
nodes = (
"383 0 LINE",
"383 170 LINE",
"222 170 LINE",
"380 350 LINE",
"380 520 LINE",
"15 520 LINE",
"15 350 LINE",
"156 350 LINE",
"8 170 LINE",
"8 0 LINE"
);
}
);
width = 393;
}
);
leftKerningGroup = z;
unicode = 007A;
},
{
export = 0;
glyphname = a.bowl;
lastChange = "2016-11-17 06:43:26 +0000";
layers = (
{
layerId = "262880E7-CFE1-4BDA-902E-E24798F3240A";
paths = (
{
closed = 1;
nodes = (
"266 -8 OFFCURVE",
"334 53 OFFCURVE",
"334 158 CURVE SMOOTH",
"334 342 LINE SMOOTH",
"334 441 OFFCURVE",
"272 508 OFFCURVE",
"166 508 CURVE SMOOTH",
"63 508 OFFCURVE",
"0 445 OFFCURVE",
"0 342 CURVE SMOOTH",
"0 158 LINE SMOOTH",
"0 55 OFFCURVE",
"65 -8 OFFCURVE",
"168 -8 CURVE SMOOTH"
);
},
{
closed = 1;
nodes = (
"77 13 OFFCURVE",
"22 67 OFFCURVE",
"22 155 CURVE SMOOTH",
"22 345 LINE SMOOTH",
"22 433 OFFCURVE",
"77 487 OFFCURVE",
"167 487 CURVE SMOOTH",
"257 487 OFFCURVE",
"315 433 OFFCURVE",
"315 345 CURVE SMOOTH",
"315 155 LINE SMOOTH",
"315 67 OFFCURVE",
"257 13 OFFCURVE",
"167 13 CURVE SMOOTH"
);
}
);
width = 334;
},
{
layerId = "4E2227F3-52E4-4048-A8EE-327B486EF0A4";
paths = (
{
closed = 1;
nodes = (
"192 -8 OFFCURVE",
"287 -1 OFFCURVE",
"283 197 CURVE",
"283 323 LINE SMOOTH",
"283 521 OFFCURVE",
"192 528 OFFCURVE",
"149 528 CURVE SMOOTH",
"44 528 OFFCURVE",
"0 454 OFFCURVE",
"0 343 CURVE SMOOTH",
"0 177 LINE SMOOTH",
"0 66 OFFCURVE",
"44 -8 OFFCURVE",
"149 -8 CURVE SMOOTH"
);
},
{
closed = 1;
nodes = (
"200 164 OFFCURVE",
"188 177 OFFCURVE",
"188 197 CURVE SMOOTH",
"188 323 LINE SMOOTH",
"188 343 OFFCURVE",
"200 356 OFFCURVE",
"217 356 CURVE SMOOTH",
"234 356 OFFCURVE",
"246 343 OFFCURVE",
"246 323 CURVE SMOOTH",
"246 197 LINE SMOOTH",
"246 177 OFFCURVE",
"234 164 OFFCURVE",
"217 164 CURVE SMOOTH"
);
}
);
width = 283;
},
{
associatedMasterId = "262880E7-CFE1-4BDA-902E-E24798F3240A";
layerId = "18CD00D0-11DB-4D9B-AADE-D663E3FF6BD4";
name = "{95,100}";
paths = (
{
closed = 1;
nodes = (
"244 -8 OFFCURVE",
"312 24 OFFCURVE",
"312 172 CURVE SMOOTH",
"312 339 LINE SMOOTH",
"312 483 OFFCURVE",
"247 517 OFFCURVE",
"169 517 CURVE SMOOTH",
"65 517 OFFCURVE",
"0 441 OFFCURVE",
"0 334 CURVE SMOOTH",
"0 174 LINE SMOOTH",
"0 68 OFFCURVE",
"66 -8 OFFCURVE",
"170 -8 CURVE SMOOTH"
);
},
{
closed = 1;
nodes = (
"131 79 OFFCURVE",
"94 115 OFFCURVE",
"94 173 CURVE SMOOTH",
"94 335 LINE SMOOTH",
"94 394 OFFCURVE",
"131 430 OFFCURVE",
"189 430 CURVE SMOOTH",
"247 430 OFFCURVE",
"285 394 OFFCURVE",
"285 335 CURVE SMOOTH",
"285 173 LINE SMOOTH",
"285 115 OFFCURVE",
"247 79 OFFCURVE",
"189 79 CURVE SMOOTH"
);
}
);
width = 312;
}
);
},
{
export = 0;
glyphname = n.curve;
lastChange = "2016-11-17 06:45:10 +0000";
layers = (
{
layerId = "262880E7-CFE1-4BDA-902E-E24798F3240A";
paths = (
{
closed = 1;
nodes = (
"328 0 LINE",
"328 347 LINE SMOOTH",
"328 446 OFFCURVE",
"263 507 OFFCURVE",
"168 507 CURVE SMOOTH",
"66 507 OFFCURVE",
"0 448 OFFCURVE",
"0 346 CURVE",
"18 346 LINE",
"18 433 OFFCURVE",
"77 486 OFFCURVE",
"166 486 CURVE SMOOTH",
"249 486 OFFCURVE",
"306 432 OFFCURVE",
"306 344 CURVE SMOOTH",
"306 0 LINE"
);
}
);
width = 328;
},
{
layerId = "4E2227F3-52E4-4048-A8EE-327B486EF0A4";
paths = (
{
closed = 1;
nodes = (
"283 0 LINE",
"283 348 LINE SMOOTH",
"283 459 OFFCURVE",
"239 528 OFFCURVE",
"134 528 CURVE SMOOTH",
"91 528 OFFCURVE",
"-1 520 OFFCURVE",
"0 335 CURVE",
"37 335 LINE",
"37 354 OFFCURVE",
"49 367 OFFCURVE",
"67 367 CURVE SMOOTH",
"84 367 OFFCURVE",
"95 354 OFFCURVE",
"95 335 CURVE SMOOTH",
"95 0 LINE"
);
}
);
width = 283;
},
{
associatedMasterId = "262880E7-CFE1-4BDA-902E-E24798F3240A";
layerId = "A2DD2087-447C-4684-8CEE-3BC4A0417315";
name = "{95,100}";
paths = (
{
closed = 1;
nodes = (
"323 0 LINE",
"323 349 LINE SMOOTH",
"323 453 OFFCURVE",
"264 517 OFFCURVE",
"162 517 CURVE SMOOTH",
"88 517 OFFCURVE",
"10 487 OFFCURVE",
"10 334 CURVE",
"41 334 LINE",
"41 392 OFFCURVE",
"79 427 OFFCURVE",
"137 427 CURVE SMOOTH",
"191 427 OFFCURVE",
"228 391 OFFCURVE",
"228 333 CURVE SMOOTH",
"228 0 LINE"
);
}
);
width = 323;
}
);
},
{
glyphname = zero;
lastChange = "2016-11-17 08:28:52 +0000";
layers = (
{
layerId = "262880E7-CFE1-4BDA-902E-E24798F3240A";
paths = (
{
closed = 1;
nodes = (
"381 -9 OFFCURVE",
"452 56 OFFCURVE",
"452 154 CURVE SMOOTH",
"452 546 LINE SMOOTH",
"452 644 OFFCURVE",
"381 709 OFFCURVE",
"281 709 CURVE SMOOTH",
"181 709 OFFCURVE",
"110 644 OFFCURVE",
"110 546 CURVE SMOOTH",
"110 154 LINE SMOOTH",
"110 56 OFFCURVE",
"181 -9 OFFCURVE",
"281 -9 CURVE SMOOTH"
);
},
{
closed = 1;
nodes = (
"194 12 OFFCURVE",
"132 68 OFFCURVE",
"132 152 CURVE SMOOTH",
"132 548 LINE SMOOTH",
"132 632 OFFCURVE",
"194 688 OFFCURVE",
"281 688 CURVE SMOOTH",
"368 688 OFFCURVE",
"430 632 OFFCURVE",
"430 548 CURVE SMOOTH",
"430 152 LINE SMOOTH",
"430 68 OFFCURVE",
"368 12 OFFCURVE",
"281 12 CURVE SMOOTH"
);
}
);
width = 522;
},
{
layerId = "4E2227F3-52E4-4048-A8EE-327B486EF0A4";
paths = (
{
closed = 1;
nodes = (
"387 -8 OFFCURVE",
"477 78 OFFCURVE",
"477 208 CURVE SMOOTH",
"477 492 LINE SMOOTH",
"477 622 OFFCURVE",
"387 708 OFFCURVE",
"252 708 CURVE SMOOTH",
"117 708 OFFCURVE",
"27 622 OFFCURVE",
"27 492 CURVE SMOOTH",
"27 208 LINE SMOOTH",
"27 78 OFFCURVE",
"117 -8 OFFCURVE",
"252 -8 CURVE SMOOTH"
);
},
{
closed = 1;
nodes = (
"230 162 OFFCURVE",
"215 180 OFFCURVE",
"215 208 CURVE SMOOTH",
"215 492 LINE SMOOTH",
"215 520 OFFCURVE",
"230 538 OFFCURVE",
"252 538 CURVE SMOOTH",
"274 538 OFFCURVE",
"289 520 OFFCURVE",
"289 492 CURVE SMOOTH",
"289 208 LINE SMOOTH",
"289 180 OFFCURVE",
"274 162 OFFCURVE",
"252 162 CURVE SMOOTH"
);
}
);
width = 504;
}
);
unicode = 0030;
},
{
glyphname = one;
lastChange = "2016-11-17 08:58:31 +0000";
layers = (
{
layerId = "262880E7-CFE1-4BDA-902E-E24798F3240A";
paths = (
{
closed = 1;
nodes = (
"201 0 LINE",
"201 700 LINE",
"179 700 LINE",
"179 0 LINE"
);
},
{
closed = 1;
nodes = (
"88 637 LINE",
"179 669 LINE",
"179 700 LINE",
"88 658 LINE"
);
}
);
width = 289;
},
{
layerId = "4E2227F3-52E4-4048-A8EE-327B486EF0A4";
paths = (
{
closed = 1;
nodes = (
"262 0 LINE",
"262 700 LINE",
"74 700 LINE",
"74 0 LINE"
);
},
{
closed = 1;
nodes = (
"22 529 LINE",
"74 529 LINE",
"74 700 LINE",
"22 673 LINE"
);
}
);
width = 284;
}
);
unicode = 0031;
},
{
glyphname = two;
lastChange = "2016-11-17 08:58:31 +0000";
layers = (
{
layerId = "262880E7-CFE1-4BDA-902E-E24798F3240A";
paths = (
{
closed = 1;
nodes = (
"403 0 LINE",
"403 21 LINE",
"111 21 LINE",
"319 323 LINE SMOOTH",
"380 412 OFFCURVE",
"414 485 OFFCURVE",
"414 544 CURVE SMOOTH",
"414 652 OFFCURVE",
"355 708 OFFCURVE",
"239 708 CURVE SMOOTH",
"139 708 OFFCURVE",
"72 636 OFFCURVE",
"72 528 CURVE SMOOTH",
"72 500 LINE",
"95 500 LINE",
"95 528 LINE",
"94 623 OFFCURVE",
"152 687 OFFCURVE",
"239 687 CURVE SMOOTH",
"340 687 OFFCURVE",
"392 638 OFFCURVE",
"392 544 CURVE SMOOTH",
"392 490 OFFCURVE",
"360 421 OFFCURVE",
"301 335 CURVE SMOOTH",
"85 21 LINE",
"85 0 LINE"
);
}
);
width = 486;
},
{
layerId = "4E2227F3-52E4-4048-A8EE-327B486EF0A4";
paths = (
{
closed = 1;
nodes = (
"473 0 LINE",
"473 170 LINE",
"289 170 LINE",
"408 311 LINE",
"460 382 OFFCURVE",
"467 425 OFFCURVE",
"467 520 CURVE SMOOTH",
"467 639 OFFCURVE",
"373 708 OFFCURVE",
"242 708 CURVE SMOOTH",
"115 708 OFFCURVE",
"25 640 OFFCURVE",
"18 520 CURVE",
"18 455 LINE",
"208 455 LINE",
"208 503 LINE",
"208 524 OFFCURVE",
"222 538 OFFCURVE",
"243 538 CURVE SMOOTH",
"263 538 OFFCURVE",
"277 524 OFFCURVE",
"277 503 CURVE SMOOTH",
"277 457 OFFCURVE",
"262 423 OFFCURVE",
"208 361 CURVE",
"32 170 LINE",
"32 0 LINE"
);
}
);
width = 491;
},
{
associatedMasterId = "262880E7-CFE1-4BDA-902E-E24798F3240A";
layerId = "F78DC261-0EB4-494E-AC31-41D8EA41B416";
name = "{95,100}";
paths = (
{
closed = 1;
nodes = (
"462 0 LINE",
"462 106 LINE",
"225 106 LINE",
"386 318 LINE SMOOTH",
"446 398 OFFCURVE",
"465 459 OFFCURVE",
"465 534 CURVE SMOOTH",
"465 646 OFFCURVE",
"391 708 OFFCURVE",
"268 708 CURVE SMOOTH",
"157 708 OFFCURVE",
"79 638 OFFCURVE",
"76 525 CURVE SMOOTH",
"76 480 LINE",
"172 480 LINE",
"172 517 LINE",
"172 580 OFFCURVE",
"211 622 OFFCURVE",
"269 622 CURVE SMOOTH",
"334 622 OFFCURVE",
"370 588 OFFCURVE",
"370 526 CURVE SMOOTH",
"370 476 OFFCURVE",
"346 423 OFFCURVE",
"288 346 CURVE SMOOTH",
"106 106 LINE",
"106 0 LINE"
);
}
);
width = 540;
}
);
unicode = 0032;
},
{
glyphname = three;
lastChange = "2016-11-17 08:58:31 +0000";
layers = (
{
layerId = "262880E7-CFE1-4BDA-902E-E24798F3240A";
paths = (
{
closed = 1;
nodes = (
"338 -8 OFFCURVE",
"406 58 OFFCURVE",
"406 158 CURVE SMOOTH",
"406 262 LINE SMOOTH",
"406 362 OFFCURVE",
"341 431 OFFCURVE",
"229 428 CURVE",
"409 679 LINE",
"409 700 LINE",
"69 700 LINE",
"69 679 LINE",
"383 679 LINE",
"193 416 LINE",
"204 404 LINE",
"214 406 OFFCURVE",
"224 407 OFFCURVE",
"235 407 CURVE SMOOTH",
"324 407 OFFCURVE",
"384 350 OFFCURVE",
"384 265 CURVE SMOOTH",
"384 155 LINE SMOOTH",
"384 70 OFFCURVE",
"324 13 OFFCURVE",
"235 13 CURVE SMOOTH",
"146 13 OFFCURVE",
"86 70 OFFCURVE",
"86 155 CURVE SMOOTH",
"86 201 LINE",
"64 201 LINE",
"64 158 LINE SMOOTH",
"64 58 OFFCURVE",
"132 -8 OFFCURVE",
"235 -8 CURVE SMOOTH"
);
}
);
width = 473;
},
{
layerId = "4E2227F3-52E4-4048-A8EE-327B486EF0A4";
paths = (
{
closed = 1;
nodes = (
"368 -7 OFFCURVE",
"456 59 OFFCURVE",
"456 172 CURVE SMOOTH",
"456 276 LINE SMOOTH",
"456 349 OFFCURVE",
"413 427 OFFCURVE",
"349 433 CURVE",
"456 530 LINE",
"456 700 LINE",
"49 700 LINE",
"49 530 LINE",
"230 530 LINE",
"93 417 LINE",
"194 312 LINE",
"210 333 OFFCURVE",
"220 340 OFFCURVE",
"236 340 CURVE SMOOTH",
"255 340 OFFCURVE",
"268 327 OFFCURVE",
"268 308 CURVE SMOOTH",
"268 185 LINE SMOOTH",
"268 166 OFFCURVE",
"255 153 OFFCURVE",
"236 153 CURVE SMOOTH",
"217 153 OFFCURVE",
"204 166 OFFCURVE",
"204 185 CURVE SMOOTH",
"204 232 LINE",
"16 232 LINE",
"16 172 LINE SMOOTH",
"16 59 OFFCURVE",
"104 -7 OFFCURVE",
"236 -7 CURVE SMOOTH"
);
}
);
width = 472;
}
);
unicode = 0033;
},
{
glyphname = four;
lastChange = "2016-11-17 08:58:31 +0000";
layers = (
{
layerId = "262880E7-CFE1-4BDA-902E-E24798F3240A";
paths = (
{
closed = 1;
nodes = (
"358 222 LINE",
"358 -7 LINE",
"380 -7 LINE",
"380 415 LINE",
"358 415 LINE"
);
},
{
closed = 1;
nodes = (
"87 222 LINE",
"306 700 LINE",
"282 700 LINE",
"64 222 LINE",
"64 202 LINE",
"434 202 LINE",
"434 222 LINE"
);
}
);
width = 514;
},
{
layerId = "4E2227F3-52E4-4048-A8EE-327B486EF0A4";
paths = (
{
closed = 1;
nodes = (
"285 337 LINE",
"285 0 LINE",
"473 0 LINE",
"473 480 LINE",
"315 480 LINE"
);
},
{
closed = 1;
nodes = (
"234 337 LINE",
"352 700 LINE",
"155 700 LINE",
"16 302 LINE",
"16 167 LINE",
"527 167 LINE",
"527 337 LINE"
);
}
);
width = 547;
}
);
unicode = 0034;
},
{
glyphname = five;
lastChange = "2016-11-17 08:39:22 +0000";
layers = (
{
layerId = "262880E7-CFE1-4BDA-902E-E24798F3240A";
paths = (
{
closed = 1;
nodes = (
"322 -8 OFFCURVE",
"390 58 OFFCURVE",
"390 158 CURVE SMOOTH",
"390 262 LINE SMOOTH",
"390 362 OFFCURVE",
"322 428 OFFCURVE",
"219 428 CURVE SMOOTH",
"88 428 LINE",
"88 681 LINE",
"387 681 LINE",
"387 702 LINE",
"66 702 LINE",
"66 407 LINE",
"219 407 LINE SMOOTH",
"308 407 OFFCURVE",
"368 350 OFFCURVE",
"368 265 CURVE SMOOTH",
"368 155 LINE SMOOTH",
"368 70 OFFCURVE",
"308 13 OFFCURVE",
"219 13 CURVE SMOOTH",
"130 13 OFFCURVE",
"70 70 OFFCURVE",
"70 155 CURVE SMOOTH",
"70 194 LINE",
"48 194 LINE",
"48 158 LINE SMOOTH",
"48 58 OFFCURVE",
"116 -8 OFFCURVE",
"219 -8 CURVE SMOOTH"
);
}
);
width = 438;
},
{
layerId = "4E2227F3-52E4-4048-A8EE-327B486EF0A4";
paths = (
{
closed = 1;
nodes = (
"364 -7 OFFCURVE",
"452 59 OFFCURVE",
"452 172 CURVE SMOOTH",
"452 286 LINE SMOOTH",
"452 400 OFFCURVE",
"364 470 OFFCURVE",
"232 470 CURVE SMOOTH",
"200 470 LINE",
"200 530 LINE",
"450 530 LINE",
"450 700 LINE",
"12 700 LINE",
"12 305 LINE",
"232 305 LINE SMOOTH",
"251 305 OFFCURVE",
"264 292 OFFCURVE",
"264 273 CURVE SMOOTH",
"264 185 LINE SMOOTH",
"264 166 OFFCURVE",
"251 153 OFFCURVE",
"232 153 CURVE SMOOTH",
"213 153 OFFCURVE",
"200 166 OFFCURVE",
"200 185 CURVE SMOOTH",
"200 263 LINE",
"12 263 LINE",
"12 172 LINE SMOOTH",
"12 59 OFFCURVE",
"100 -7 OFFCURVE",
"232 -7 CURVE SMOOTH"
);
}
);
width = 464;
}
);
unicode = 0035;
},
{
glyphname = six;
lastChange = "2016-11-17 08:58:31 +0000";
layers = (
{
layerId = "262880E7-CFE1-4BDA-902E-E24798F3240A";
paths = (
{
closed = 1;
nodes = (
"424 542 LINE SMOOTH",
"424 642 OFFCURVE",
"356 708 OFFCURVE",
"252 708 CURVE SMOOTH",
"148 708 OFFCURVE",
"80 642 OFFCURVE",
"80 542 CURVE SMOOTH",
"80 158 LINE SMOOTH",
"80 58 OFFCURVE",
"148 -8 OFFCURVE",
"252 -8 CURVE SMOOTH",
"356 -8 OFFCURVE",
"424 58 OFFCURVE",
"424 158 CURVE SMOOTH",
"424 262 LINE SMOOTH",
"424 362 OFFCURVE",
"356 428 OFFCURVE",
"252 428 CURVE SMOOTH",
"181 428 OFFCURVE",
"126 395 OFFCURVE",
"99 340 CURVE",
"102 340 LINE",
"102 545 LINE SMOOTH",
"102 630 OFFCURVE",
"162 687 OFFCURVE",
"252 687 CURVE SMOOTH",
"342 687 OFFCURVE",
"402 630 OFFCURVE",
"402 545 CURVE SMOOTH",
"402 500 LINE",
"424 500 LINE"
);
},
{
closed = 1;
nodes = (
"342 407 OFFCURVE",
"402 350 OFFCURVE",
"402 265 CURVE SMOOTH",
"402 155 LINE SMOOTH",
"402 70 OFFCURVE",
"342 13 OFFCURVE",
"252 13 CURVE SMOOTH",
"162 13 OFFCURVE",
"102 70 OFFCURVE",
"102 155 CURVE SMOOTH",
"102 265 LINE SMOOTH",
"102 350 OFFCURVE",
"162 407 OFFCURVE",
"252 407 CURVE SMOOTH"
);
}
);
width = 496;
},
{
layerId = "4E2227F3-52E4-4048-A8EE-327B486EF0A4";
paths = (
{
closed = 1;
nodes = (
"460 524 LINE SMOOTH",
"460 638 OFFCURVE",
"372 708 OFFCURVE",
"240 708 CURVE SMOOTH",
"108 708 OFFCURVE",
"20 638 OFFCURVE",
"20 524 CURVE SMOOTH",
"20 171 LINE SMOOTH",
"20 58 OFFCURVE",
"108 -8 OFFCURVE",
"240 -8 CURVE SMOOTH",
"372 -8 OFFCURVE",
"460 58 OFFCURVE",
"460 171 CURVE SMOOTH",
"460 260 LINE SMOOTH",
"460 390 OFFCURVE",
"371 444 OFFCURVE",
"280 444 CURVE SMOOTH",
"181 444 OFFCURVE",
"159 381 OFFCURVE",
"159 367 CURVE",
"208 367 LINE",
"208 511 LINE SMOOTH",
"208 530 OFFCURVE",
"221 543 OFFCURVE",
"240 543 CURVE SMOOTH",
"259 543 OFFCURVE",
"272 530 OFFCURVE",
"272 511 CURVE SMOOTH",
"272 470 LINE",
"460 470 LINE"
);
},
{
closed = 1;
nodes = (
"259 284 OFFCURVE",
"272 271 OFFCURVE",
"272 252 CURVE SMOOTH",
"272 184 LINE SMOOTH",
"272 165 OFFCURVE",
"259 152 OFFCURVE",
"240 152 CURVE SMOOTH",
"221 152 OFFCURVE",
"208 165 OFFCURVE",
"208 184 CURVE SMOOTH",
"208 252 LINE SMOOTH",
"208 271 OFFCURVE",
"221 284 OFFCURVE",
"240 284 CURVE SMOOTH"
);
}
);
width = 478;
}
);
unicode = 0036;
},
{
glyphname = seven;
lastChange = "2016-11-17 08:58:31 +0000";
layers = (
{
layerId = "262880E7-CFE1-4BDA-902E-E24798F3240A";
paths = (
{
closed = 1;
nodes = (
"139 0 LINE",
"372 679 LINE",
"372 700 LINE",
"24 700 LINE",
"24 679 LINE",
"348 679 LINE",
"114 0 LINE"
);
}
);
width = 412;
},
{
layerId = "4E2227F3-52E4-4048-A8EE-327B486EF0A4";
paths = (
{
closed = 1;
nodes = (
"237 0 LINE",
"416 530 LINE",
"416 700 LINE",
"6 700 LINE",
"6 530 LINE",
"218 530 LINE",
"41 0 LINE"
);
}
);
width = 426;
}
);
unicode = 0037;
},
{
glyphname = eight;
lastChange = "2016-11-17 08:58:31 +0000";
layers = (
{
layerId = "262880E7-CFE1-4BDA-902E-E24798F3240A";
paths = (
{
closed = 1;
nodes = (
"358 -18 OFFCURVE",
"427 54 OFFCURVE",
"427 161 CURVE SMOOTH",
"427 215 LINE SMOOTH",
"427 322 OFFCURVE",
"358 394 OFFCURVE",
"254 394 CURVE SMOOTH",
"150 394 OFFCURVE",
"80 322 OFFCURVE",
"80 215 CURVE SMOOTH",
"80 161 LINE SMOOTH",
"80 54 OFFCURVE",
"150 -18 OFFCURVE",
"254 -18 CURVE SMOOTH"
);
},
{
closed = 1;
nodes = (
"163 2 OFFCURVE",
"102 66 OFFCURVE",
"102 161 CURVE SMOOTH",
"102 215 LINE SMOOTH",
"102 311 OFFCURVE",
"163 375 OFFCURVE",
"254 375 CURVE SMOOTH",
"345 375 OFFCURVE",
"405 311 OFFCURVE",
"405 215 CURVE SMOOTH",
"405 161 LINE SMOOTH",
"405 66 OFFCURVE",
"345 2 OFFCURVE",
"254 2 CURVE SMOOTH"
);
},
{
closed = 1;
nodes = (
"358 375 OFFCURVE",
"425 439 OFFCURVE",
"425 534 CURVE SMOOTH",
"425 549 LINE SMOOTH",
"425 644 OFFCURVE",
"358 708 OFFCURVE",
"254 708 CURVE SMOOTH",
"150 708 OFFCURVE",
"82 644 OFFCURVE",
"82 549 CURVE SMOOTH",
"82 534 LINE SMOOTH",
"82 439 OFFCURVE",
"150 375 OFFCURVE",
"254 375 CURVE SMOOTH"
);
},
{
closed = 1;
nodes = (
"163 395 OFFCURVE",
"104 451 OFFCURVE",
"104 534 CURVE SMOOTH",
"104 549 LINE SMOOTH",
"104 633 OFFCURVE",
"163 689 OFFCURVE",
"254 689 CURVE SMOOTH",
"345 689 OFFCURVE",
"403 633 OFFCURVE",
"403 549 CURVE SMOOTH",
"403 534 LINE SMOOTH",
"403 451 OFFCURVE",
"345 395 OFFCURVE",
"254 395 CURVE SMOOTH"
);
}
);
width = 507;
},
{
layerId = "4E2227F3-52E4-4048-A8EE-327B486EF0A4";
paths = (
{
closed = 1;
nodes = (
"399 -8 OFFCURVE",
"488 69 OFFCURVE",
"488 194 CURVE SMOOTH",
"488 241 LINE SMOOTH",
"488 427 OFFCURVE",
"294 403 OFFCURVE",
"254 403 CURVE SMOOTH",
"214 403 OFFCURVE",
"20 427 OFFCURVE",
"20 241 CURVE SMOOTH",
"20 195 LINE SMOOTH",
"20 69 OFFCURVE",
"109 -8 OFFCURVE",
"254 -8 CURVE SMOOTH"
);
},
{
closed = 1;
nodes = (
"225 152 OFFCURVE",
"208 171 OFFCURVE",
"208 203 CURVE SMOOTH",
"208 237 LINE SMOOTH",
"208 269 OFFCURVE",
"225 288 OFFCURVE",
"254 288 CURVE",
"283 288 OFFCURVE",
"300 269 OFFCURVE",
"300 237 CURVE SMOOTH",
"300 203 LINE SMOOTH",
"300 171 OFFCURVE",
"283 152 OFFCURVE",
"254 152 CURVE SMOOTH"
);
},
{
closed = 1;
nodes = (
"359 294 OFFCURVE",
"488 339 OFFCURVE",
"488 486 CURVE SMOOTH",
"488 525 LINE SMOOTH",
"488 650 OFFCURVE",
"400 708 OFFCURVE",
"254 708 CURVE SMOOTH",
"109 708 OFFCURVE",
"20 651 OFFCURVE",
"20 525 CURVE SMOOTH",
"20 487 LINE SMOOTH",
"20 339 OFFCURVE",
"139 294 OFFCURVE",
"254 294 CURVE SMOOTH"
);
},
{
closed = 1;
nodes = (
"225 422 OFFCURVE",
"208 441 OFFCURVE",
"208 473 CURVE SMOOTH",
"208 497 LINE SMOOTH",
"208 529 OFFCURVE",
"225 548 OFFCURVE",
"254 548 CURVE SMOOTH",
"283 548 OFFCURVE",
"300 529 OFFCURVE",
"300 497 CURVE SMOOTH",
"300 473 LINE SMOOTH",
"300 441 OFFCURVE",
"283 422 OFFCURVE",
"254 422 CURVE SMOOTH"
);
}
);
width = 508;
},
{
associatedMasterId = "262880E7-CFE1-4BDA-902E-E24798F3240A";
layerId = "B41EB33A-408D-4C01-B8DA-ABE53E8149E1";
name = "{95,100}";
paths = (
{
closed = 1;
nodes = (
"380 -14 OFFCURVE",
"460 62 OFFCURVE",
"460 175 CURVE SMOOTH",
"460 236 LINE SMOOTH",
"460 339 OFFCURVE",
"380 407 OFFCURVE",
"260 407 CURVE SMOOTH",
"140 407 OFFCURVE",
"60 339 OFFCURVE",
"60 236 CURVE SMOOTH",
"60 176 LINE SMOOTH",
"60 62 OFFCURVE",
"140 -14 OFFCURVE",
"260 -14 CURVE SMOOTH"
);
},
{
closed = 1;
nodes = (
"196 67 OFFCURVE",
"154 112 OFFCURVE",
"154 179 CURVE SMOOTH",
"154 235 LINE SMOOTH",
"154 296 OFFCURVE",
"196 337 OFFCURVE",
"260 337 CURVE SMOOTH",
"323 337 OFFCURVE",
"365 296 OFFCURVE",
"365 235 CURVE SMOOTH",
"365 179 LINE SMOOTH",
"365 112 OFFCURVE",
"323 67 OFFCURVE",
"260 67 CURVE SMOOTH"
);
},
{
closed = 1;
nodes = (
"373 337 OFFCURVE",
"448 399 OFFCURVE",
"448 493 CURVE SMOOTH",
"448 542 LINE SMOOTH",
"448 642 OFFCURVE",
"373 708 OFFCURVE",
"260 708 CURVE SMOOTH",
"147 708 OFFCURVE",
"71 642 OFFCURVE",
"71 542 CURVE SMOOTH",
"71 493 LINE SMOOTH",
"71 399 OFFCURVE",
"147 337 OFFCURVE",
"260 337 CURVE SMOOTH"
);
},
{
closed = 1;
nodes = (
"203 407 OFFCURVE",
"165 447 OFFCURVE",
"165 507 CURVE SMOOTH",
"165 526 LINE SMOOTH",
"165 587 OFFCURVE",
"203 627 OFFCURVE",
"260 627 CURVE SMOOTH",
"316 627 OFFCURVE",
"354 587 OFFCURVE",
"354 526 CURVE SMOOTH",
"354 507 LINE SMOOTH",
"354 447 OFFCURVE",
"316 407 OFFCURVE",
"260 407 CURVE SMOOTH"
);
}
);
width = 520;
}
);
unicode = 0038;
},
{
glyphname = colon;
lastChange = "2016-11-17 05:41:29 +0000";
layers = (
{
layerId = "262880E7-CFE1-4BDA-902E-E24798F3240A";
paths = (
{
closed = 1;
nodes = (
"181 350 OFFCURVE",
"200 368 OFFCURVE",
"200 391 CURVE SMOOTH",
"200 413 OFFCURVE",
"181 431 OFFCURVE",
"159 431 CURVE SMOOTH",
"137 431 OFFCURVE",
"118 413 OFFCURVE",
"118 391 CURVE SMOOTH",
"118 368 OFFCURVE",
"136 350 OFFCURVE",
"159 350 CURVE SMOOTH"
);
},
{
closed = 1;
nodes = (
"181 7 OFFCURVE",
"200 25 OFFCURVE",
"200 48 CURVE SMOOTH",
"200 70 OFFCURVE",
"181 88 OFFCURVE",
"159 88 CURVE SMOOTH",
"137 88 OFFCURVE",
"118 70 OFFCURVE",
"118 48 CURVE SMOOTH",
"118 25 OFFCURVE",
"136 7 OFFCURVE",
"159 7 CURVE SMOOTH"
);
}
);
width = 318;
},
{
layerId = "4E2227F3-52E4-4048-A8EE-327B486EF0A4";
paths = (
{
closed = 1;
nodes = (
"223 321 OFFCURVE",
"266 368 OFFCURVE",
"266 426 CURVE SMOOTH",
"266 484 OFFCURVE",
"214 530 OFFCURVE",
"161 530 CURVE SMOOTH",
"108 530 OFFCURVE",
"56 484 OFFCURVE",
"56 426 CURVE SMOOTH",
"56 368 OFFCURVE",
"99 321 OFFCURVE",
"161 321 CURVE SMOOTH"
);
},
{
closed = 1;
nodes = (
"223 0 OFFCURVE",
"266 47 OFFCURVE",
"266 105 CURVE SMOOTH",
"266 163 OFFCURVE",
"214 209 OFFCURVE",
"161 209 CURVE SMOOTH",
"108 209 OFFCURVE",
"56 163 OFFCURVE",
"56 105 CURVE SMOOTH",
"56 47 OFFCURVE",
"99 0 OFFCURVE",
"161 0 CURVE SMOOTH"
);
}
);
width = 318;
}
);
leftKerningGroup = colon;
unicode = 003A;
},
{
glyphname = comma;
lastChange = "2016-11-17 05:41:29 +0000";
layers = (
{
layerId = "262880E7-CFE1-4BDA-902E-E24798F3240A";
paths = (
{
closed = 1;
nodes = (
"132 -66 LINE",
"187 153 LINE",
"165 153 LINE",
"110 -66 LINE"
);
}
);
width = 298;
},
{
layerId = "4E2227F3-52E4-4048-A8EE-327B486EF0A4";
paths = (
{
closed = 1;
nodes = (
"146 -111 LINE",
"209 160 LINE",
"41 160 LINE",
"24 -111 LINE"
);
}
);
width = 233;
}
);
leftKerningGroup = comma;
rightKerningGroup = comma;
unicode = 002C;
},
{
glyphname = exclam;
lastChange = "2016-11-17 05:41:29 +0000";
layers = (
{
layerId = "262880E7-CFE1-4BDA-902E-E24798F3240A";
paths = (
{
closed = 1;
nodes = (
"163 220 LINE",
"163 700 LINE",
"141 700 LINE",
"141 220 LINE"
);
},
{
closed = 1;
nodes = (
"171 5 OFFCURVE",
"190 23 OFFCURVE",
"190 46 CURVE SMOOTH",
"190 68 OFFCURVE",
"171 86 OFFCURVE",
"149 86 CURVE SMOOTH",
"127 86 OFFCURVE",
"108 68 OFFCURVE",
"108 46 CURVE SMOOTH",
"108 23 OFFCURVE",
"126 5 OFFCURVE",
"149 5 CURVE SMOOTH"
);
}
);
width = 302;
},
{
layerId = "4E2227F3-52E4-4048-A8EE-327B486EF0A4";
paths = (
{
closed = 1;
nodes = (
"225 248 LINE",
"245 700 LINE",
"57 700 LINE",
"77 248 LINE"
);
},
{
closed = 1;
nodes = (
"212 0 OFFCURVE",
"255 47 OFFCURVE",
"255 105 CURVE SMOOTH",
"255 163 OFFCURVE",
"203 209 OFFCURVE",
"150 209 CURVE SMOOTH",
"97 209 OFFCURVE",
"45 163 OFFCURVE",
"45 105 CURVE SMOOTH",
"45 47 OFFCURVE",
"88 0 OFFCURVE",
"150 0 CURVE SMOOTH"
);
}
);
width = 302;
}
);
unicode = 0021;
},
{
glyphname = period;
lastChange = "2016-11-17 05:41:29 +0000";
layers = (
{
layerId = "262880E7-CFE1-4BDA-902E-E24798F3240A";
paths = (
{
closed = 1;
nodes = (
"181 7 OFFCURVE",
"200 25 OFFCURVE",
"200 48 CURVE SMOOTH",
"200 70 OFFCURVE",
"181 88 OFFCURVE",
"159 88 CURVE SMOOTH",
"137 88 OFFCURVE",
"118 70 OFFCURVE",
"118 48 CURVE SMOOTH",
"118 25 OFFCURVE",
"136 7 OFFCURVE",
"159 7 CURVE SMOOTH"
);
}
);
width = 320;
},
{
layerId = "4E2227F3-52E4-4048-A8EE-327B486EF0A4";
paths = (
{
closed = 1;
nodes = (
"211 -8 OFFCURVE",
"254 39 OFFCURVE",
"254 97 CURVE SMOOTH",
"254 155 OFFCURVE",
"202 201 OFFCURVE",
"149 201 CURVE SMOOTH",
"96 201 OFFCURVE",
"44 155 OFFCURVE",
"44 97 CURVE SMOOTH",
"44 39 OFFCURVE",
"87 -8 OFFCURVE",
"149 -8 CURVE SMOOTH"
);
}
);
width = 308;
}
);
leftKerningGroup = comma;
rightKerningGroup = comma;
unicode = 002E;
},
{
glyphname = question;
lastChange = "2016-11-17 05:41:29 +0000";
layers = (
{
layerId = "262880E7-CFE1-4BDA-902E-E24798F3240A";
paths = (
{
closed = 1;
nodes = (
"227 239 LINE",
"197 243 OFFCURVE",
"182 254 OFFCURVE",
"182 275 CURVE SMOOTH",
"182 346 OFFCURVE",
"363 378 OFFCURVE",
"363 546 CURVE SMOOTH",
"363 645 OFFCURVE",
"300 709 OFFCURVE",
"206 709 CURVE SMOOTH",
"111 709 OFFCURVE",
"47 645 OFFCURVE",
"47 550 CURVE SMOOTH",
"47 500 LINE",
"69 500 LINE",
"69 550 LINE SMOOTH",
"69 633 OFFCURVE",
"124 688 OFFCURVE",
"206 688 CURVE SMOOTH",
"287 688 OFFCURVE",
"341 633 OFFCURVE",
"341 549 CURVE SMOOTH",
"341 395 OFFCURVE",
"158 364 OFFCURVE",
"158 271 CURVE SMOOTH",
"158 235 OFFCURVE",
"186 213 OFFCURVE",
"227 215 CURVE"
);
},
{
closed = 1;
nodes = (
"213 5 OFFCURVE",
"232 23 OFFCURVE",
"232 46 CURVE SMOOTH",
"232 68 OFFCURVE",
"213 86 OFFCURVE",
"191 86 CURVE SMOOTH",
"169 86 OFFCURVE",
"150 68 OFFCURVE",
"150 46 CURVE SMOOTH",
"150 23 OFFCURVE",
"168 5 OFFCURVE",
"191 5 CURVE SMOOTH"
);
}
);
width = 413;
},
{
layerId = "4E2227F3-52E4-4048-A8EE-327B486EF0A4";
paths = (
{
closed = 1;
nodes = (
"411 238 LINE",
"404 243 OFFCURVE",
"391 253 OFFCURVE",
"391 272 CURVE SMOOTH",
"391 339 OFFCURVE",
"551 338 OFFCURVE",
"551 503 CURVE SMOOTH",
"551 627 OFFCURVE",
"461 710 OFFCURVE",
"320 710 CURVE SMOOTH",
"174 710 OFFCURVE",
"74 620 OFFCURVE",
"74 488 CURVE SMOOTH",
"74 478 LINE",
"262 469 LINE",
"262 488 LINE SMOOTH",
"262 517 OFFCURVE",
"281 539 OFFCURVE",
"315 539 CURVE SMOOTH",
"344 539 OFFCURVE",
"361 522 OFFCURVE",
"361 494 CURVE SMOOTH",
"361 408 OFFCURVE",
"205 430 OFFCURVE",
"205 284 CURVE SMOOTH",
"205 251 OFFCURVE",
"213 236 OFFCURVE",
"234 220 CURVE"
);
},
{
closed = 1;
nodes = (
"359 -5 OFFCURVE",
"404 38 OFFCURVE",
"404 91 CURVE SMOOTH",
"404 144 OFFCURVE",
"358 187 OFFCURVE",
"306 187 CURVE SMOOTH",
"254 187 OFFCURVE",
"209 144 OFFCURVE",
"209 90 CURVE SMOOTH",
"209 38 OFFCURVE",
"252 -5 OFFCURVE",
"305 -5 CURVE SMOOTH"
);
}
);
width = 601;
}
);
unicode = 003F;
},
{
glyphname = quotedbl;
lastChange = "2016-11-17 06:21:18 +0000";
layers = (
{
layerId = "262880E7-CFE1-4BDA-902E-E24798F3240A";
paths = (
{
closed = 1;
nodes = (
"193 500 LINE",
"193 692 LINE",
"171 692 LINE",
"171 500 LINE"
);
},
{
closed = 1;
nodes = (
"83 500 LINE",
"83 692 LINE",
"61 692 LINE",
"61 500 LINE"
);
}
);
width = 254;
},
{
layerId = "4E2227F3-52E4-4048-A8EE-327B486EF0A4";
paths = (
{
closed = 1;
nodes = (
"382 460 LINE",
"402 700 LINE",
"224 700 LINE",
"244 460 LINE"
);
},
{
closed = 1;
nodes = (
"156 460 LINE",
"176 700 LINE",
"-2 700 LINE",
"18 460 LINE"
);
}
);
width = 400;
}
);
leftKerningGroup = quotedbl;
leftMetricsKey = "=quotesingle";
rightKerningGroup = quotedbl;
rightMetricsKey = "=quotesingle";
unicode = 0022;
},
{
glyphname = quotesingle;
lastChange = "2016-11-17 08:29:28 +0000";
layers = (
{
layerId = "262880E7-CFE1-4BDA-902E-E24798F3240A";
paths = (
{
closed = 1;
nodes = (
"74 507 LINE",
"74 697 LINE",
"52 697 LINE",
"52 507 LINE"
);
}
);
width = 126;
},
{
layerId = "4E2227F3-52E4-4048-A8EE-327B486EF0A4";
paths = (
{
closed = 1;
nodes = (
"166 460 LINE",
"186 700 LINE",
"-2 700 LINE",
"18 460 LINE"
);
}
);
width = 184;
}
);
leftKerningGroup = quotedbl;
leftMetricsKey = "=n-20";
rightKerningGroup = quotedbl;
rightMetricsKey = "=|n-20";
unicode = 0027;
},
{
glyphname = semicolon;
lastChange = "2016-11-17 05:41:29 +0000";
layers = (
{
layerId = "262880E7-CFE1-4BDA-902E-E24798F3240A";
paths = (
{
closed = 1;
nodes = (
"136 -60 LINE",
"172 147 LINE",
"150 147 LINE",
"114 -60 LINE"
);
},
{
closed = 1;
nodes = (
"178 370 OFFCURVE",
"197 388 OFFCURVE",
"197 411 CURVE",
"197 433 OFFCURVE",
"178 451 OFFCURVE",
"156 451 CURVE SMOOTH",
"134 451 OFFCURVE",
"115 433 OFFCURVE",
"115 411 CURVE SMOOTH",
"115 388 OFFCURVE",
"133 370 OFFCURVE",
"156 370 CURVE SMOOTH"
);
}
);
width = 304;
},
{
layerId = "4E2227F3-52E4-4048-A8EE-327B486EF0A4";
paths = (
{
closed = 1;
nodes = (
"154 -111 LINE",
"217 160 LINE",
"49 160 LINE",
"32 -111 LINE"
);
},
{
closed = 1;
nodes = (
"191 291 OFFCURVE",
"234 338 OFFCURVE",
"234 396 CURVE SMOOTH",
"234 454 OFFCURVE",
"182 500 OFFCURVE",
"129 500 CURVE SMOOTH",
"76 500 OFFCURVE",
"24 454 OFFCURVE",
"24 396 CURVE SMOOTH",
"24 338 OFFCURVE",
"67 291 OFFCURVE",
"129 291 CURVE SMOOTH"
);
}
);
width = 258;
}
);
leftKerningGroup = colon;
unicode = 003B;
},
{
glyphname = slash;
lastChange = "2016-11-17 05:41:29 +0000";
layers = (
{
layerId = "262880E7-CFE1-4BDA-902E-E24798F3240A";
paths = (
{
closed = 1;
nodes = (
"22 0 LINE",
"222 700 LINE",
"200 700 LINE",
"0 0 LINE"
);
}
);
width = 222;
},
{
layerId = "4E2227F3-52E4-4048-A8EE-327B486EF0A4";
paths = (
{
closed = 1;
nodes = (
"188 0 LINE",
"442 700 LINE",
"254 700 LINE",
"0 0 LINE"
);
}
);
width = 442;
}
);
unicode = 002F;
},
{
glyphname = emdash;
lastChange = "2016-11-17 05:41:29 +0000";
layers = (
{
layerId = "262880E7-CFE1-4BDA-902E-E24798F3240A";
paths = (
{
closed = 1;
nodes = (
"506 251 LINE",
"506 272 LINE",
"98 272 LINE",
"98 251 LINE"
);
}
);
width = 604;
},
{
layerId = "4E2227F3-52E4-4048-A8EE-327B486EF0A4";
paths = (
{
closed = 1;
nodes = (
"419 165 LINE",
"419 325 LINE",
"12 325 LINE",
"12 165 LINE"
);
}
);
width = 431;
}
);
leftKerningGroup = hyphen;
rightKerningGroup = hyphen;
unicode = 2014;
},
{
glyphname = hyphen;
lastChange = "2016-11-17 05:41:29 +0000";
layers = (
{
layerId = "262880E7-CFE1-4BDA-902E-E24798F3240A";
paths = (
{
closed = 1;
nodes = (
"356 251 LINE",
"356 272 LINE",
"98 272 LINE",
"98 251 LINE"
);
}
);
width = 454;
},
{
layerId = "4E2227F3-52E4-4048-A8EE-327B486EF0A4";
paths = (
{
closed = 1;
nodes = (
"359 165 LINE",
"359 325 LINE",
"72 325 LINE",
"72 165 LINE"
);
}
);
width = 454;
}
);
leftKerningGroup = hyphen;
rightKerningGroup = hyphen;
unicode = 002D;
},
{
glyphname = dollar;
lastChange = "2016-11-17 05:41:29 +0000";
layers = (
{
layerId = "262880E7-CFE1-4BDA-902E-E24798F3240A";
paths = (
{
closed = 1;
nodes = (
"349 -5 OFFCURVE",
"412 50 OFFCURVE",
"412 149 CURVE SMOOTH",
"412 255 OFFCURVE",
"339 307 OFFCURVE",
"257 361 CURVE SMOOTH",
"176 414 OFFCURVE",
"112 457 OFFCURVE",
"112 550 CURVE SMOOTH",
"112 634 OFFCURVE",
"164 684 OFFCURVE",
"248 684 CURVE SMOOTH",
"332 684 OFFCURVE",
"384 635 OFFCURVE",
"384 548 CURVE SMOOTH",
"384 500 LINE",
"406 500 LINE",
"406 550 LINE SMOOTH",
"406 650 OFFCURVE",
"346 705 OFFCURVE",
"248 705 CURVE SMOOTH",
"150 705 OFFCURVE",
"90 649 OFFCURVE",
"90 553 CURVE SMOOTH",
"90 446 OFFCURVE",
"165 394 OFFCURVE",
"243 342 CURVE SMOOTH",
"320 291 OFFCURVE",
"390 248 OFFCURVE",
"390 152 CURVE SMOOTH",
"390 67 OFFCURVE",
"335 15 OFFCURVE",
"250 15 CURVE SMOOTH",
"165 15 OFFCURVE",
"118 68 OFFCURVE",
"118 154 CURVE SMOOTH",
"118 200 LINE",
"96 200 LINE",
"96 150 LINE SMOOTH",
"96 50 OFFCURVE",
"152 -5 OFFCURVE",
"251 -5 CURVE SMOOTH"
);
},
{
closed = 1;
nodes = (
"265 -88 LINE",
"265 2 LINE",
"243 2 LINE",
"243 -88 LINE"
);
},
{
closed = 1;
nodes = (
"258 702 LINE",
"258 792 LINE",
"236 792 LINE",
"236 702 LINE"
);
}
);
width = 502;
},
{
layerId = "4E2227F3-52E4-4048-A8EE-327B486EF0A4";
paths = (
{
closed = 1;
nodes = (
"367 -8 OFFCURVE",
"456 70 OFFCURVE",
"456 187 CURVE SMOOTH",
"456 288 OFFCURVE",
"389 338 OFFCURVE",
"284 412 CURVE SMOOTH",
"217 459 OFFCURVE",
"197 475 OFFCURVE",
"197 508 CURVE SMOOTH",
"197 534 OFFCURVE",
"210 548 OFFCURVE",
"231 548 CURVE SMOOTH",
"252 548 OFFCURVE",
"266 534 OFFCURVE",
"266 514 CURVE SMOOTH",
"266 490 LINE",
"451 490 LINE",
"451 509 LINE SMOOTH",
"451 628 OFFCURVE",
"364 708 OFFCURVE",
"232 708 CURVE SMOOTH",
"99 708 OFFCURVE",
"12 628 OFFCURVE",
"12 510 CURVE SMOOTH",
"12 387 OFFCURVE",
"107 322 OFFCURVE",
"182 272 CURVE SMOOTH",
"252 225 OFFCURVE",
"271 211 OFFCURVE",
"271 186 CURVE SMOOTH",
"271 164 OFFCURVE",
"257 152 OFFCURVE",
"237 152 CURVE SMOOTH",
"216 152 OFFCURVE",
"202 166 OFFCURVE",
"202 188 CURVE SMOOTH",
"202 211 LINE",
"17 211 LINE",
"17 180 LINE SMOOTH",
"17 70 OFFCURVE",
"102 -8 OFFCURVE",
"235 -8 CURVE SMOOTH"
);
},
{
closed = 1;
nodes = (
"290 -64 LINE",
"290 57 LINE",
"175 57 LINE",
"175 -64 LINE"
);
},
{
closed = 1;
nodes = (
"290 653 LINE",
"290 774 LINE",
"176 774 LINE",
"176 653 LINE"
);
}
);
width = 468;
}
);
unicode = 0024;
},
{
glyphname = at;
lastChange = "2016-11-17 05:41:29 +0000";
layers = (
{
layerId = "262880E7-CFE1-4BDA-902E-E24798F3240A";
paths = (
{
closed = 1;
nodes = (
"640 -71 OFFCURVE",
"802 92 OFFCURVE",
"802 290 CURVE SMOOTH",
"802 488 OFFCURVE",
"640 651 OFFCURVE",
"441 651 CURVE SMOOTH",
"242 651 OFFCURVE",
"80 488 OFFCURVE",
"80 290 CURVE SMOOTH",
"80 92 OFFCURVE",
"242 -71 OFFCURVE",
"441 -71 CURVE SMOOTH"
);
},
{
closed = 1;
nodes = (
"254 -50 OFFCURVE",
"102 102 OFFCURVE",
"102 290 CURVE SMOOTH",
"102 478 OFFCURVE",
"254 630 OFFCURVE",
"441 630 CURVE SMOOTH",
"628 630 OFFCURVE",
"780 478 OFFCURVE",
"780 290 CURVE SMOOTH",
"780 102 OFFCURVE",
"628 -50 OFFCURVE",
"441 -50 CURVE SMOOTH"
);
},
{
closed = 1;
nodes = (
"504 99 OFFCURVE",
"548 146 OFFCURVE",
"548 221 CURVE SMOOTH",
"548 363 LINE SMOOTH",
"548 438 OFFCURVE",
"504 485 OFFCURVE",
"432 485 CURVE SMOOTH",
"359 485 OFFCURVE",
"311 439 OFFCURVE",
"311 364 CURVE SMOOTH",
"311 220 LINE SMOOTH",
"311 145 OFFCURVE",
"359 99 OFFCURVE",
"432 99 CURVE SMOOTH"
);
},
{
closed = 1;
nodes = (
"367 115 OFFCURVE",
"328 155 OFFCURVE",
"328 220 CURVE SMOOTH",
"328 364 LINE SMOOTH",
"328 429 OFFCURVE",
"369 469 OFFCURVE",
"432 469 CURVE SMOOTH",
"496 469 OFFCURVE",
"537 429 OFFCURVE",
"537 364 CURVE SMOOTH",
"537 220 LINE SMOOTH",
"537 155 OFFCURVE",
"498 115 OFFCURVE",
"432 115 CURVE SMOOTH"
);
},
{
closed = 1;
nodes = (
"553 104 LINE",
"553 480 LINE",
"537 480 LINE",
"537 104 LINE"
);
}
);
width = 882;
},
{
layerId = "4E2227F3-52E4-4048-A8EE-327B486EF0A4";
paths = (
{
closed = 1;
nodes = (
"623 -62 OFFCURVE",
"782 96 OFFCURVE",
"782 292 CURVE SMOOTH",
"782 486 OFFCURVE",
"623 644 OFFCURVE",
"429 644 CURVE SMOOTH",
"235 644 OFFCURVE",
"77 486 OFFCURVE",
"77 292 CURVE SMOOTH",
"77 96 OFFCURVE",
"235 -62 OFFCURVE",
"429 -62 CURVE SMOOTH"
);
},
{
closed = 1;
nodes = (
"307 68 OFFCURVE",
"207 168 OFFCURVE",
"207 292 CURVE SMOOTH",
"207 414 OFFCURVE",
"307 514 OFFCURVE",
"429 514 CURVE SMOOTH",
"552 514 OFFCURVE",
"652 414 OFFCURVE",
"652 292 CURVE SMOOTH",
"652 168 OFFCURVE",
"552 68 OFFCURVE",
"429 68 CURVE SMOOTH"
);
},
{
closed = 1;
nodes = (
"452 137 OFFCURVE",
"490 181 OFFCURVE",
"490 241 CURVE SMOOTH",
"490 325 LINE SMOOTH",
"490 385 OFFCURVE",
"452 429 OFFCURVE",
"387 429 CURVE SMOOTH",
"342 429 OFFCURVE",
"303 406 OFFCURVE",
"303 345 CURVE SMOOTH",
"303 221 LINE SMOOTH",
"303 159 OFFCURVE",
"342 137 OFFCURVE",
"387 137 CURVE SMOOTH"
);
},
{
closed = 1;
nodes = (
"418 224 OFFCURVE",
"411 231 OFFCURVE",
"411 242 CURVE SMOOTH",
"411 326 LINE SMOOTH",
"411 337 OFFCURVE",
"418 344 OFFCURVE",
"427 344 CURVE SMOOTH",
"437 344 OFFCURVE",
"444 337 OFFCURVE",
"444 326 CURVE",
"444 242 LINE",
"444 231 OFFCURVE",
"437 224 OFFCURVE",
"427 224 CURVE SMOOTH"
);
},
{
closed = 1;
nodes = (
"551 141 LINE",
"551 426 LINE",
"444 426 LINE",
"444 141 LINE"
);
}
);
width = 862;
}
);
unicode = 0040;
},
{
glyphname = copyright;
lastChange = "2016-11-17 05:41:29 +0000";
layers = (
{
layerId = "262880E7-CFE1-4BDA-902E-E24798F3240A";
paths = (
{
closed = 1;
nodes = (
"640 -71 OFFCURVE",
"802 92 OFFCURVE",
"802 290 CURVE SMOOTH",
"802 488 OFFCURVE",
"640 651 OFFCURVE",
"441 651 CURVE SMOOTH",
"242 651 OFFCURVE",
"80 488 OFFCURVE",
"80 290 CURVE SMOOTH",
"80 92 OFFCURVE",
"242 -71 OFFCURVE",
"441 -71 CURVE SMOOTH"
);
},
{
closed = 1;
nodes = (
"254 -50 OFFCURVE",
"102 102 OFFCURVE",
"102 290 CURVE SMOOTH",
"102 478 OFFCURVE",
"254 630 OFFCURVE",
"441 630 CURVE SMOOTH",
"628 630 OFFCURVE",
"780 478 OFFCURVE",
"780 290 CURVE SMOOTH",
"780 102 OFFCURVE",
"628 -50 OFFCURVE",
"441 -50 CURVE SMOOTH"
);
},
{
closed = 1;
nodes = (
"513 99 OFFCURVE",
"559 144 OFFCURVE",
"559 219 CURVE SMOOTH",
"559 221 LINE",
"543 221 LINE",
"543 219 LINE SMOOTH",
"543 154 OFFCURVE",
"504 114 OFFCURVE",
"438 114 CURVE SMOOTH",
"373 114 OFFCURVE",
"334 154 OFFCURVE",
"334 219 CURVE SMOOTH",
"334 363 LINE SMOOTH",
"334 429 OFFCURVE",
"375 468 OFFCURVE",
"438 468 CURVE SMOOTH",
"502 468 OFFCURVE",
"543 429 OFFCURVE",
"543 363 CURVE SMOOTH",
"543 362 LINE",
"559 362 LINE",
"559 363 LINE SMOOTH",
"559 438 OFFCURVE",
"513 483 OFFCURVE",
"438 483 CURVE SMOOTH",
"364 483 OFFCURVE",
"317 438 OFFCURVE",
"317 363 CURVE SMOOTH",
"317 219 LINE SMOOTH",
"317 144 OFFCURVE",
"364 99 OFFCURVE",
"438 99 CURVE SMOOTH"
);
}
);
width = 882;
},
{
layerId = "4E2227F3-52E4-4048-A8EE-327B486EF0A4";
paths = (
{
closed = 1;
nodes = (
"653 -2 OFFCURVE",
"812 156 OFFCURVE",
"812 352 CURVE SMOOTH",
"812 546 OFFCURVE",
"653 704 OFFCURVE",
"459 704 CURVE SMOOTH",
"265 704 OFFCURVE",
"107 546 OFFCURVE",
"107 352 CURVE SMOOTH",
"107 156 OFFCURVE",
"265 -2 OFFCURVE",
"459 -2 CURVE SMOOTH"
);
},
{
closed = 1;
nodes = (
"337 128 OFFCURVE",
"237 228 OFFCURVE",
"237 352 CURVE SMOOTH",
"237 474 OFFCURVE",
"337 574 OFFCURVE",
"459 574 CURVE SMOOTH",
"582 574 OFFCURVE",
"682 474 OFFCURVE",
"682 352 CURVE SMOOTH",
"682 228 OFFCURVE",
"582 128 OFFCURVE",
"459 128 CURVE SMOOTH"
);
},
{
closed = 1;
nodes = (
"536 204 OFFCURVE",
"584 248 OFFCURVE",
"584 312 CURVE SMOOTH",
"584 335 LINE",
"476 335 LINE",
"476 308 LINE SMOOTH",
"476 298 OFFCURVE",
"469 290 OFFCURVE",
"460 290 CURVE SMOOTH",
"450 290 OFFCURVE",
"443 298 OFFCURVE",
"443 308 CURVE SMOOTH",
"443 395 LINE SMOOTH",
"443 406 OFFCURVE",
"450 414 OFFCURVE",
"460 414 CURVE SMOOTH",
"469 414 OFFCURVE",
"476 406 OFFCURVE",
"476 395 CURVE SMOOTH",
"476 369 LINE",
"584 368 LINE",
"584 391 LINE SMOOTH",
"584 456 OFFCURVE",
"536 499 OFFCURVE",
"460 499 CURVE SMOOTH",
"383 499 OFFCURVE",
"336 456 OFFCURVE",
"336 391 CURVE SMOOTH",
"336 312 LINE SMOOTH",
"336 248 OFFCURVE",
"383 204 OFFCURVE",
"460 204 CURVE SMOOTH"
);
}
);
width = 882;
}
);
unicode = 00A9;
},
{
glyphname = registered;
lastChange = "2016-11-17 05:41:29 +0000";
layers = (
{
layerId = "262880E7-CFE1-4BDA-902E-E24798F3240A";
paths = (
{
closed = 1;
nodes = (
"640 -72 OFFCURVE",
"802 91 OFFCURVE",
"802 289 CURVE SMOOTH",
"802 487 OFFCURVE",
"640 650 OFFCURVE",
"441 650 CURVE SMOOTH",
"242 650 OFFCURVE",
"80 487 OFFCURVE",
"80 289 CURVE SMOOTH",
"80 91 OFFCURVE",
"242 -72 OFFCURVE",
"441 -72 CURVE SMOOTH"
);
},
{
closed = 1;
nodes = (
"540.533 101 LINE",
"476 287.133 LINE",
"466.4 282.867 LINE",
"528.8 101 LINE"
);
},
{
closed = 1;
nodes = (
"254 -51 OFFCURVE",
"102 101 OFFCURVE",
"102 289 CURVE SMOOTH",
"102 477 OFFCURVE",
"254 629 OFFCURVE",
"441 629 CURVE SMOOTH",
"628 629 OFFCURVE",
"780 477 OFFCURVE",
"780 289 CURVE SMOOTH",
"780 101 OFFCURVE",
"628 -51 OFFCURVE",
"441 -51 CURVE SMOOTH"
);
},
{
closed = 1;
nodes = (
"369.867 101 LINE",
"369.867 463.667 LINE",
"466.4 463.667 LINE SMOOTH",
"511.2 463.667 OFFCURVE",
"541.067 429.533 OFFCURVE",
"541.067 378.333 CURVE SMOOTH",
"541.067 327.133 OFFCURVE",
"511.2 293 OFFCURVE",
"466.4 293 CURVE SMOOTH",
"367.2 293 LINE",
"367.2 282.333 LINE",
"465.333 282.333 LINE SMOOTH",
"517.6 282.333 OFFCURVE",
"552.267 320.2 OFFCURVE",
"552.267 378.333 CURVE SMOOTH",
"552.267 436.467 OFFCURVE",
"517.6 475.4 OFFCURVE",
"465.333 475.4 CURVE SMOOTH",
"357.6 475.4 LINE",
"357.6 101 LINE"
);
}
);
width = 882;
},
{
layerId = "4E2227F3-52E4-4048-A8EE-327B486EF0A4";
paths = (
{
closed = 1;
nodes = (
"653 -2 OFFCURVE",
"812 156 OFFCURVE",
"812 352 CURVE SMOOTH",
"812 546 OFFCURVE",
"653 704 OFFCURVE",
"459 704 CURVE SMOOTH",
"265 704 OFFCURVE",
"107 546 OFFCURVE",
"107 352 CURVE SMOOTH",
"107 156 OFFCURVE",
"265 -2 OFFCURVE",
"459 -2 CURVE SMOOTH"
);
},
{
closed = 1;
nodes = (
"561 212 LINE",
"523 346 LINE",
"453 346 LINE",
"484 212 LINE"
);
},
{
closed = 1;
nodes = (
"337 128 OFFCURVE",
"237 228 OFFCURVE",
"237 352 CURVE SMOOTH",
"237 474 OFFCURVE",
"337 574 OFFCURVE",
"459 574 CURVE SMOOTH",
"582 574 OFFCURVE",
"682 474 OFFCURVE",
"682 352 CURVE SMOOTH",
"682 228 OFFCURVE",
"582 128 OFFCURVE",
"459 128 CURVE SMOOTH"
);
},
{
closed = 1;
nodes = (
"446 212 LINE",
"446 425 LINE",
"465 425 LINE SMOOTH",
"477 425 OFFCURVE",
"486 415 OFFCURVE",
"486 400 CURVE SMOOTH",
"486 385 OFFCURVE",
"477 375 OFFCURVE",
"465 375 CURVE SMOOTH",
"439 375 LINE",
"439 313 LINE",
"477 313 LINE SMOOTH",
"527 313 OFFCURVE",
"560 349 OFFCURVE",
"560 400 CURVE SMOOTH",
"560 453 OFFCURVE",
"525 489 OFFCURVE",
"473 489 CURVE SMOOTH",
"371 489 LINE",
"371 212 LINE"
);
}
);
width = 882;
}
);
unicode = 00AE;
},
